<svg xmlns="http://www.w3.org/2000/svg" xmlns:xlink="http://www.w3.org/1999/xlink" width="100" zoomAndPan="magnify" viewBox="0 0 75 74.999997" height="100" preserveAspectRatio="xMidYMid meet" version="1.0"><defs><filter x="0%" y="0%" width="100%" height="100%" id="d1a8043c0c"><feColorMatrix values="0 0 0 0 1 0 0 0 0 1 0 0 0 0 1 0 0 0 1 0" color-interpolation-filters="sRGB"/></filter><clipPath id="77a59d9df0"><path d="M 7.5 7.5 L 67.5 7.5 L 67.5 67.5 L 7.5 67.5 Z M 7.5 7.5 " clip-rule="nonzero"/></clipPath><clipPath id="06409faa33"><path d="M 20.800781 51 L 55.300781 51 L 55.300781 53.472656 L 20.800781 53.472656 Z M 20.800781 51 " clip-rule="nonzero"/></clipPath><clipPath id="2e6ce6f1e0"><path d="M 20.800781 48 L 55.300781 48 L 55.300781 51 L 20.800781 51 Z M 20.800781 48 " clip-rule="nonzero"/></clipPath><clipPath id="6de1285714"><path d="M 20.800781 45 L 55.300781 45 L 55.300781 48 L 20.800781 48 Z M 20.800781 45 " clip-rule="nonzero"/></clipPath><clipPath id="37bbc8d104"><path d="M 21 20.472656 L 27 20.472656 L 27 45 L 21 45 Z M 21 20.472656 " clip-rule="nonzero"/></clipPath><clipPath id="4d161946e8"><path d="M 20.800781 20.472656 L 27 20.472656 L 27 45 L 20.800781 45 Z M 20.800781 20.472656 " clip-rule="nonzero"/></clipPath><mask id="39fa847d4f"><g filter="url(#d1a8043c0c)"><rect x="-7.5" width="90" fill="#000000" y="-7.5" height="89.999996" fill-opacity="0.1"/></g></mask><clipPath id="d4a33ac864"><path d="M 0.320312 0.0390625 L 2.960938 0.0390625 L 2.960938 7.480469 L 0.320312 7.480469 Z M 0.320312 0.0390625 " clip-rule="nonzero"/></clipPath><clipPath id="549a359c60"><rect x="0" width="3" y="0" height="8"/></clipPath><mask id="9712b3031c"><g filter="url(#d1a8043c0c)"><rect x="-7.5" width="90" fill="#000000" y="-7.5" height="89.999996" fill-opacity="0.1"/></g></mask><clipPath id="1f2e4cc795"><path d="M 0.761719 0.320312 L 3.640625 0.320312 L 3.640625 8 L 0.761719 8 Z M 0.761719 0.320312 " clip-rule="nonzero"/></clipPath><clipPath id="6f14e2106c"><rect x="0" width="4" y="0" height="8"/></clipPath><mask id="2946ab891f"><g filter="url(#d1a8043c0c)"><rect x="-7.5" width="90" fill="#000000" y="-7.5" height="89.999996" fill-opacity="0.1"/></g></mask><clipPath id="fb1d5d2b77"><path d="M 1 0.0390625 L 10.960938 0.0390625 L 10.960938 24.519531 L 1 24.519531 Z M 1 0.0390625 " clip-rule="nonzero"/></clipPath><clipPath id="ed8441646c"><rect x="0" width="11" y="0" height="25"/></clipPath><mask id="dbe541cf17"><g filter="url(#d1a8043c0c)"><rect x="-7.5" width="90" fill="#000000" y="-7.5" height="89.999996" fill-opacity="0.1"/></g></mask><clipPath id="d590e7f08a"><path d="M 0.558594 0.558594 L 10.398438 0.558594 L 10.398438 13.519531 L 0.558594 13.519531 Z M 0.558594 0.558594 " clip-rule="nonzero"/></clipPath><clipPath id="11bfbb1610"><rect x="0" width="11" y="0" height="14"/></clipPath><clipPath id="84b2c772b0"><path d="M 45 22 L 55.300781 22 L 55.300781 48 L 45 48 Z M 45 22 " clip-rule="nonzero"/></clipPath></defs><rect x="-7.5" width="90" fill="#ffffff" y="-7.5" height="89.999996" fill-opacity="1"/><rect x="-7.5" width="90" fill="#ffffff" y="-7.5" height="89.999996" fill-opacity="1"/><g clip-path="url(#77a59d9df0)"><path fill="#1d9f80" d="M 37.5 7.5 C 20.957031 7.5 7.5 20.957031 7.5 37.5 C 7.5 54.042969 20.957031 67.5 37.5 67.5 C 54.042969 67.5 67.5 54.042969 67.5 37.5 C 67.5 20.957031 54.042969 7.5 37.5 7.5 Z M 37.5 66.71875 C 21.390625 66.71875 8.28125 53.609375 8.28125 37.5 C 8.28125 21.390625 21.390625 8.28125 37.5 8.28125 C 53.609375 8.28125 66.71875 21.390625 66.71875 37.5 C 66.71875 53.609375 53.609375 66.71875 37.5 66.71875 Z M 37.5 66.71875 " fill-opacity="1" fill-rule="nonzero"/></g><path fill="#1d9f80" d="M 37.5 9.84375 C 22.25 9.84375 9.84375 22.25 9.84375 37.5 C 9.84375 52.75 22.25 65.160156 37.5 65.160156 C 52.75 65.160156 65.15625 52.75 65.15625 37.5 C 65.15625 22.25 52.75 9.84375 37.5 9.84375 Z M 37.5 9.84375 " fill-opacity="1" fill-rule="nonzero"/><g clip-path="url(#06409faa33)"><path fill="#545454" d="M 50.992188 53.195312 C 50.171875 53.214844 49.40625 53.015625 48.695312 52.605469 C 48.085938 52.265625 47.429688 52.097656 46.730469 52.097656 C 46.03125 52.097656 45.375 52.265625 44.765625 52.605469 C 44.050781 53 43.285156 53.195312 42.46875 53.195312 C 41.652344 53.195312 40.886719 53 40.171875 52.605469 C 39.5625 52.265625 38.90625 52.097656 38.207031 52.097656 C 37.507812 52.097656 36.851562 52.265625 36.242188 52.605469 C 35.53125 53.015625 34.765625 53.214844 33.945312 53.195312 C 33.125 53.214844 32.359375 53.015625 31.648438 52.605469 C 31.042969 52.25 30.390625 52.082031 29.6875 52.097656 C 28.984375 52.082031 28.328125 52.25 27.722656 52.605469 C 27.011719 53.015625 26.246094 53.214844 25.425781 53.195312 C 24.605469 53.214844 23.839844 53.015625 23.132812 52.605469 C 22.523438 52.246094 21.871094 52.074219 21.164062 52.085938 C 21.066406 52.085938 20.980469 52.050781 20.910156 51.980469 C 20.839844 51.910156 20.800781 51.824219 20.800781 51.722656 C 20.800781 51.625 20.839844 51.539062 20.910156 51.46875 C 20.980469 51.398438 21.066406 51.363281 21.164062 51.363281 C 21.984375 51.34375 22.75 51.539062 23.460938 51.949219 C 24.066406 52.3125 24.722656 52.488281 25.425781 52.472656 C 26.128906 52.488281 26.785156 52.320312 27.390625 51.960938 C 28.101562 51.550781 28.867188 51.355469 29.6875 51.371094 C 30.507812 51.355469 31.273438 51.550781 31.984375 51.960938 C 32.589844 52.320312 33.242188 52.488281 33.945312 52.472656 C 34.648438 52.488281 35.304688 52.320312 35.910156 51.960938 C 36.625 51.570312 37.390625 51.371094 38.207031 51.371094 C 39.023438 51.371094 39.789062 51.570312 40.503906 51.960938 C 41.113281 52.300781 41.769531 52.472656 42.46875 52.472656 C 43.167969 52.472656 43.824219 52.300781 44.433594 51.960938 C 45.148438 51.570312 45.914062 51.371094 46.730469 51.371094 C 47.546875 51.371094 48.308594 51.570312 49.027344 51.960938 C 49.636719 52.300781 50.292969 52.472656 50.992188 52.472656 C 51.691406 52.472656 52.347656 52.300781 52.957031 51.960938 C 53.667969 51.546875 54.433594 51.347656 55.257812 51.363281 C 55.355469 51.363281 55.441406 51.398438 55.511719 51.46875 C 55.582031 51.539062 55.617188 51.625 55.617188 51.722656 C 55.617188 51.824219 55.582031 51.910156 55.511719 51.980469 C 55.441406 52.050781 55.355469 52.085938 55.257812 52.085938 C 54.554688 52.070312 53.898438 52.238281 53.289062 52.59375 C 52.582031 53.007812 51.8125 53.210938 50.992188 53.195312 Z M 50.992188 53.195312 " fill-opacity="1" fill-rule="nonzero"/></g><g clip-path="url(#2e6ce6f1e0)"><path fill="#545454" d="M 50.992188 50.4375 C 50.171875 50.453125 49.40625 50.257812 48.695312 49.84375 C 48.085938 49.507812 47.429688 49.335938 46.730469 49.335938 C 46.03125 49.335938 45.375 49.507812 44.765625 49.84375 C 44.050781 50.238281 43.285156 50.4375 42.46875 50.4375 C 41.652344 50.4375 40.886719 50.238281 40.171875 49.84375 C 39.5625 49.507812 38.90625 49.335938 38.207031 49.335938 C 37.507812 49.335938 36.851562 49.507812 36.242188 49.84375 C 35.53125 50.257812 34.765625 50.453125 33.945312 50.4375 C 33.125 50.453125 32.359375 50.257812 31.648438 49.84375 C 31.042969 49.488281 30.390625 49.320312 29.6875 49.339844 C 28.984375 49.320312 28.328125 49.488281 27.722656 49.84375 C 27.011719 50.257812 26.246094 50.453125 25.425781 50.4375 C 24.605469 50.453125 23.839844 50.257812 23.132812 49.84375 C 22.523438 49.488281 21.867188 49.320312 21.164062 49.339844 C 21.066406 49.339844 20.980469 49.300781 20.910156 49.230469 C 20.839844 49.160156 20.800781 49.074219 20.800781 48.976562 C 20.800781 48.875 20.839844 48.789062 20.910156 48.71875 C 20.980469 48.648438 21.066406 48.613281 21.164062 48.613281 C 21.988281 48.597656 22.753906 48.796875 23.464844 49.207031 C 24.070312 49.566406 24.722656 49.738281 25.425781 49.71875 C 26.128906 49.738281 26.785156 49.566406 27.390625 49.207031 C 28.101562 48.796875 28.867188 48.601562 29.6875 48.621094 C 30.507812 48.601562 31.273438 48.800781 31.984375 49.207031 C 32.589844 49.566406 33.242188 49.738281 33.945312 49.71875 C 34.648438 49.738281 35.304688 49.566406 35.910156 49.207031 C 36.625 48.816406 37.390625 48.621094 38.207031 48.621094 C 39.023438 48.621094 39.789062 48.816406 40.503906 49.207031 C 41.113281 49.546875 41.769531 49.71875 42.46875 49.71875 C 43.167969 49.71875 43.824219 49.546875 44.433594 49.207031 C 45.148438 48.816406 45.914062 48.621094 46.730469 48.621094 C 47.546875 48.621094 48.308594 48.816406 49.027344 49.207031 C 49.636719 49.546875 50.292969 49.71875 50.992188 49.71875 C 51.691406 49.71875 52.347656 49.546875 52.957031 49.207031 C 53.667969 48.796875 54.433594 48.597656 55.257812 48.613281 C 55.355469 48.613281 55.441406 48.648438 55.511719 48.71875 C 55.582031 48.789062 55.617188 48.875 55.617188 48.976562 C 55.617188 49.074219 55.582031 49.160156 55.511719 49.230469 C 55.441406 49.300781 55.355469 49.339844 55.257812 49.339844 C 54.554688 49.320312 53.898438 49.488281 53.289062 49.84375 C 52.578125 50.257812 51.8125 50.453125 50.992188 50.4375 Z M 50.992188 50.4375 " fill-opacity="1" fill-rule="nonzero"/></g><g clip-path="url(#6de1285714)"><path fill="#545454" d="M 50.996094 47.683594 C 50.171875 47.703125 49.402344 47.503906 48.691406 47.09375 C 48.46875 46.972656 48.238281 46.863281 48.003906 46.773438 C 47.59375 46.640625 47.171875 46.578125 46.742188 46.585938 C 46.035156 46.570312 45.378906 46.738281 44.773438 47.097656 L 44.410156 47.269531 C 43.796875 47.5625 43.148438 47.703125 42.46875 47.683594 C 41.648438 47.703125 40.878906 47.503906 40.167969 47.09375 C 39.5625 46.738281 38.910156 46.570312 38.210938 46.585938 C 38.042969 46.585938 37.871094 46.59375 37.703125 46.609375 C 37.1875 46.667969 36.703125 46.832031 36.253906 47.09375 C 35.539062 47.503906 34.773438 47.703125 33.949219 47.683594 C 33.128906 47.703125 32.367188 47.507812 31.65625 47.09375 C 31.050781 46.738281 30.398438 46.566406 29.695312 46.585938 C 28.992188 46.566406 28.335938 46.738281 27.730469 47.097656 C 27.019531 47.503906 26.253906 47.699219 25.433594 47.683594 C 24.613281 47.699219 23.847656 47.503906 23.136719 47.097656 C 22.53125 46.734375 21.871094 46.566406 21.164062 46.585938 C 21.066406 46.585938 20.980469 46.550781 20.910156 46.480469 C 20.839844 46.410156 20.800781 46.324219 20.800781 46.222656 C 20.800781 46.121094 20.839844 46.035156 20.910156 45.964844 C 20.980469 45.894531 21.066406 45.859375 21.164062 45.859375 C 21.988281 45.839844 22.753906 46.039062 23.464844 46.449219 C 24.070312 46.808594 24.722656 46.976562 25.425781 46.957031 C 26.128906 46.976562 26.78125 46.808594 27.390625 46.449219 C 28.101562 46.039062 28.867188 45.839844 29.6875 45.859375 C 30.507812 45.839844 31.273438 46.039062 31.984375 46.449219 C 32.589844 46.808594 33.242188 46.976562 33.941406 46.957031 C 34.648438 46.976562 35.304688 46.808594 35.914062 46.449219 C 36.445312 46.144531 37.015625 45.957031 37.625 45.890625 C 37.824219 45.890625 38.011719 45.859375 38.203125 45.859375 C 39.027344 45.839844 39.792969 46.039062 40.503906 46.449219 C 41.109375 46.808594 41.765625 46.976562 42.472656 46.957031 C 43.046875 46.972656 43.589844 46.851562 44.105469 46.597656 C 44.214844 46.546875 44.316406 46.492188 44.421875 46.4375 C 45.136719 46.023438 45.902344 45.824219 46.726562 45.839844 C 47.238281 45.832031 47.738281 45.910156 48.222656 46.070312 C 48.5 46.167969 48.769531 46.289062 49.027344 46.433594 C 49.636719 46.773438 50.292969 46.941406 50.992188 46.941406 C 51.691406 46.941406 52.347656 46.773438 52.960938 46.433594 C 53.488281 46.128906 54.058594 45.941406 54.664062 45.875 C 54.867188 45.875 55.058594 45.84375 55.257812 45.84375 C 55.355469 45.84375 55.441406 45.878906 55.511719 45.953125 C 55.582031 46.023438 55.617188 46.109375 55.617188 46.207031 C 55.617188 46.308594 55.582031 46.394531 55.511719 46.464844 C 55.441406 46.535156 55.355469 46.570312 55.257812 46.570312 C 55.085938 46.570312 54.914062 46.578125 54.742188 46.597656 C 54.222656 46.65625 53.738281 46.816406 53.289062 47.078125 C 52.582031 47.496094 51.816406 47.695312 50.996094 47.683594 Z M 50.996094 47.683594 " fill-opacity="1" fill-rule="nonzero"/></g><g clip-path="url(#37bbc8d104)"><path fill="#656d78" d="M 26.113281 22.050781 L 26.113281 42.902344 C 26.113281 43.050781 26.082031 43.195312 26.027344 43.332031 C 25.96875 43.46875 25.890625 43.589844 25.785156 43.695312 C 25.679688 43.800781 25.558594 43.882812 25.421875 43.9375 C 25.285156 43.996094 25.144531 44.023438 24.996094 44.023438 L 21.164062 44.023438 L 21.164062 20.917969 L 24.996094 20.917969 C 25.144531 20.917969 25.289062 20.949219 25.425781 21.003906 C 25.5625 21.0625 25.683594 21.144531 25.789062 21.25 C 25.894531 21.359375 25.976562 21.480469 26.03125 21.617188 C 26.085938 21.757812 26.113281 21.902344 26.113281 22.050781 Z M 26.113281 22.050781 " fill-opacity="1" fill-rule="nonzero"/></g><g clip-path="url(#4d161946e8)"><path fill="#545454" d="M 24.996094 44.386719 L 21.164062 44.386719 C 21.066406 44.386719 20.980469 44.351562 20.910156 44.28125 C 20.839844 44.210938 20.800781 44.125 20.800781 44.023438 L 20.800781 20.917969 C 20.800781 20.820312 20.839844 20.734375 20.910156 20.664062 C 20.980469 20.589844 21.066406 20.554688 21.164062 20.554688 L 24.996094 20.554688 C 25.191406 20.558594 25.378906 20.59375 25.5625 20.671875 C 25.742188 20.746094 25.902344 20.851562 26.042969 20.992188 C 26.179688 21.132812 26.289062 21.292969 26.363281 21.472656 C 26.4375 21.65625 26.476562 21.84375 26.476562 22.039062 L 26.476562 42.894531 C 26.476562 43.089844 26.441406 43.28125 26.367188 43.464844 C 26.289062 43.644531 26.183594 43.808594 26.046875 43.949219 C 25.90625 44.089844 25.746094 44.195312 25.5625 44.273438 C 25.382812 44.347656 25.191406 44.386719 24.996094 44.386719 Z M 21.527344 43.664062 L 24.996094 43.664062 C 25.203125 43.660156 25.382812 43.585938 25.527344 43.4375 C 25.675781 43.289062 25.75 43.113281 25.75 42.902344 L 25.75 22.050781 C 25.753906 21.839844 25.679688 21.660156 25.53125 21.507812 C 25.386719 21.359375 25.207031 21.28125 24.996094 21.28125 L 21.527344 21.28125 Z M 21.527344 43.664062 " fill-opacity="1" fill-rule="nonzero"/></g><path fill="#e4e8eb" d="M 26.113281 23.132812 L 42.605469 23.132812 L 42.605469 30.28125 L 26.113281 30.28125 Z M 26.113281 23.132812 " fill-opacity="1" fill-rule="nonzero"/><path fill="#aab2bd" d="M 43.066406 21.480469 L 44.902344 21.480469 C 45.027344 21.480469 45.136719 21.527344 45.226562 21.613281 C 45.3125 21.703125 45.359375 21.8125 45.359375 21.9375 L 45.359375 31.46875 C 45.359375 31.59375 45.3125 31.703125 45.226562 31.792969 C 45.136719 31.882812 45.027344 31.925781 44.902344 31.925781 L 43.066406 31.925781 C 42.941406 31.925781 42.832031 31.882812 42.742188 31.792969 C 42.65625 31.703125 42.609375 31.59375 42.609375 31.46875 L 42.609375 21.9375 C 42.609375 21.8125 42.65625 21.703125 42.742188 21.613281 C 42.832031 21.527344 42.941406 21.480469 43.066406 21.480469 Z M 43.066406 21.480469 " fill-opacity="1" fill-rule="nonzero"/><path fill="#545454" d="M 44.902344 32.289062 L 43.0625 32.289062 C 42.835938 32.289062 42.644531 32.207031 42.484375 32.046875 C 42.328125 31.886719 42.246094 31.695312 42.246094 31.46875 L 42.246094 21.9375 C 42.246094 21.710938 42.328125 21.519531 42.484375 21.359375 C 42.644531 21.199219 42.835938 21.121094 43.0625 21.117188 L 44.902344 21.117188 C 45.128906 21.117188 45.320312 21.199219 45.480469 21.359375 C 45.640625 21.519531 45.722656 21.710938 45.722656 21.9375 L 45.722656 31.46875 C 45.722656 31.695312 45.640625 31.886719 45.480469 32.046875 C 45.320312 32.207031 45.128906 32.289062 44.902344 32.289062 Z M 43.0625 21.84375 C 43 21.84375 42.96875 21.875 42.972656 21.9375 L 42.972656 31.46875 C 42.96875 31.53125 43 31.5625 43.0625 31.5625 L 44.902344 31.5625 C 44.964844 31.5625 44.996094 31.53125 44.996094 31.46875 L 44.996094 21.9375 C 44.996094 21.875 44.964844 21.84375 44.902344 21.84375 Z M 43.0625 21.84375 " fill-opacity="1" fill-rule="nonzero"/><path fill="#e0e70e" d="M 54.703125 31.179688 L 54.703125 46.238281 C 53.109375 46.40625 52.925781 47.324219 50.996094 47.324219 C 49.453125 47.324219 49.027344 46.753906 48.09375 46.4375 L 48.09375 32.480469 C 48.09375 32.117188 48.023438 31.765625 47.882812 31.429688 C 47.742188 31.09375 47.546875 30.796875 47.289062 30.539062 C 47.03125 30.28125 46.734375 30.082031 46.394531 29.941406 C 46.058594 29.800781 45.707031 29.734375 45.34375 29.730469 L 45.34375 23.136719 L 46.660156 23.136719 C 47.1875 23.136719 47.710938 23.1875 48.230469 23.289062 C 48.75 23.390625 49.25 23.546875 49.738281 23.746094 C 50.226562 23.949219 50.691406 24.195312 51.128906 24.492188 C 51.570312 24.785156 51.976562 25.117188 52.347656 25.492188 C 52.722656 25.863281 53.054688 26.269531 53.347656 26.710938 C 53.644531 27.148438 53.890625 27.613281 54.09375 28.101562 C 54.292969 28.589844 54.449219 29.089844 54.550781 29.609375 C 54.652344 30.128906 54.703125 30.652344 54.703125 31.179688 Z M 54.703125 31.179688 " fill-opacity="1" fill-rule="nonzero"/><path fill="#e4e8eb" d="M 26.113281 34.679688 L 32.160156 34.679688 L 32.160156 41.828125 L 26.113281 41.828125 Z M 26.113281 34.679688 " fill-opacity="1" fill-rule="nonzero"/><g mask="url(#39fa847d4f)"><g transform="matrix(1, 0, 0, 1, 40, 23)"><g clip-path="url(#549a359c60)"><g clip-path="url(#d4a33ac864)"><path fill="#545454" d="M 0.410156 0.132812 L 2.605469 0.132812 L 2.605469 7.28125 L 0.410156 7.28125 Z M 0.410156 0.132812 " fill-opacity="1" fill-rule="nonzero"/></g></g></g></g><g mask="url(#9712b3031c)"><g transform="matrix(1, 0, 0, 1, 29, 34)"><g clip-path="url(#6f14e2106c)"><g clip-path="url(#1f2e4cc795)"><path fill="#545454" d="M 0.960938 0.679688 L 3.160156 0.679688 L 3.160156 7.828125 L 0.960938 7.828125 Z M 0.960938 0.679688 " fill-opacity="1" fill-rule="nonzero"/></g></g></g></g><path fill="#545454" d="M 42.609375 30.636719 L 26.113281 30.636719 C 26.011719 30.636719 25.925781 30.601562 25.855469 30.53125 C 25.785156 30.460938 25.75 30.375 25.75 30.277344 L 25.75 23.132812 C 25.75 23.03125 25.785156 22.945312 25.855469 22.875 C 25.925781 22.804688 26.011719 22.769531 26.113281 22.769531 L 42.609375 22.769531 C 42.710938 22.769531 42.796875 22.804688 42.867188 22.875 C 42.9375 22.945312 42.972656 23.03125 42.972656 23.132812 L 42.972656 30.277344 C 42.972656 30.375 42.9375 30.460938 42.867188 30.53125 C 42.796875 30.601562 42.710938 30.636719 42.609375 30.636719 Z M 26.476562 29.914062 L 42.246094 29.914062 L 42.246094 23.492188 L 26.476562 23.492188 Z M 26.476562 29.914062 " fill-opacity="1" fill-rule="nonzero"/><path fill="#545454" d="M 32.160156 42.191406 L 26.113281 42.191406 C 26.011719 42.191406 25.925781 42.152344 25.855469 42.082031 C 25.785156 42.011719 25.75 41.925781 25.75 41.828125 L 25.75 34.679688 C 25.75 34.578125 25.785156 34.492188 25.855469 34.421875 C 25.925781 34.351562 26.011719 34.316406 26.113281 34.316406 L 32.160156 34.316406 C 32.261719 34.316406 32.347656 34.351562 32.417969 34.421875 C 32.488281 34.492188 32.523438 34.578125 32.523438 34.679688 L 32.523438 41.828125 C 32.523438 41.925781 32.488281 42.011719 32.417969 42.082031 C 32.347656 42.152344 32.261719 42.191406 32.160156 42.191406 Z M 26.476562 41.464844 L 31.796875 41.464844 L 31.796875 35.042969 L 26.476562 35.042969 Z M 26.476562 41.464844 " fill-opacity="1" fill-rule="nonzero"/><path fill="#aab2bd" d="M 32.617188 33.027344 L 34.453125 33.027344 C 34.578125 33.027344 34.6875 33.074219 34.777344 33.164062 C 34.867188 33.25 34.910156 33.359375 34.910156 33.484375 L 34.910156 43.015625 C 34.910156 43.144531 34.867188 43.25 34.777344 43.339844 C 34.6875 43.429688 34.578125 43.472656 34.453125 43.472656 L 32.617188 43.472656 C 32.492188 43.472656 32.382812 43.429688 32.296875 43.339844 C 32.207031 43.25 32.160156 43.144531 32.160156 43.015625 L 32.160156 33.484375 C 32.160156 33.359375 32.207031 33.25 32.296875 33.164062 C 32.382812 33.074219 32.492188 33.027344 32.617188 33.027344 Z M 32.617188 33.027344 " fill-opacity="1" fill-rule="nonzero"/><path fill="#545454" d="M 34.453125 43.839844 L 32.617188 43.839844 C 32.390625 43.839844 32.199219 43.761719 32.039062 43.601562 C 31.878906 43.441406 31.796875 43.246094 31.796875 43.019531 L 31.796875 33.484375 C 31.796875 33.257812 31.878906 33.066406 32.039062 32.90625 C 32.199219 32.746094 32.390625 32.664062 32.617188 32.664062 L 34.453125 32.664062 C 34.679688 32.664062 34.875 32.746094 35.03125 32.90625 C 35.191406 33.066406 35.273438 33.257812 35.273438 33.484375 L 35.273438 43.019531 C 35.273438 43.246094 35.191406 43.441406 35.03125 43.601562 C 34.875 43.761719 34.679688 43.839844 34.453125 43.839844 Z M 32.617188 33.390625 C 32.554688 33.390625 32.523438 33.421875 32.523438 33.484375 L 32.523438 43.019531 C 32.523438 43.082031 32.554688 43.113281 32.617188 43.113281 L 34.453125 43.113281 C 34.515625 43.113281 34.546875 43.082031 34.546875 43.019531 L 34.546875 33.484375 C 34.546875 33.421875 34.515625 33.390625 34.453125 33.390625 Z M 32.617188 33.390625 " fill-opacity="1" fill-rule="nonzero"/><path fill="#e0e70e" d="M 44.257812 42.753906 L 44.257812 46.945312 C 43.691406 47.210938 43.097656 47.332031 42.472656 47.308594 C 40.335938 47.308594 40.335938 46.21875 38.203125 46.21875 C 38.023438 46.21875 37.839844 46.226562 37.660156 46.246094 L 37.660156 44.027344 C 37.660156 43.664062 37.589844 43.3125 37.449219 42.976562 C 37.3125 42.640625 37.113281 42.34375 36.855469 42.085938 C 36.597656 41.828125 36.300781 41.628906 35.960938 41.488281 C 35.625 41.347656 35.273438 41.28125 34.910156 41.28125 L 34.910156 34.699219 L 36.1875 34.699219 C 36.714844 34.699219 37.242188 34.753906 37.757812 34.855469 C 38.277344 34.957031 38.78125 35.109375 39.273438 35.3125 C 39.761719 35.515625 40.226562 35.765625 40.664062 36.058594 C 41.105469 36.351562 41.511719 36.683594 41.886719 37.058594 C 42.261719 37.433594 42.597656 37.839844 42.890625 38.277344 C 43.1875 38.71875 43.433594 39.183594 43.636719 39.671875 C 43.839844 40.160156 43.996094 40.664062 44.097656 41.183594 C 44.203125 41.703125 44.253906 42.226562 44.257812 42.753906 Z M 44.257812 42.753906 " fill-opacity="1" fill-rule="nonzero"/><g mask="url(#2946ab891f)"><g transform="matrix(1, 0, 0, 1, 44, 23)"><g clip-path="url(#ed8441646c)"><g clip-path="url(#fb1d5d2b77)"><path fill="#545454" d="M 10.703125 8.179688 L 10.703125 23.238281 C 9.109375 23.40625 8.921875 24.324219 6.992188 24.324219 C 6.707031 24.328125 6.425781 24.304688 6.144531 24.257812 C 7.328125 24.039062 7.683594 23.398438 9.003906 23.253906 L 9.003906 8.179688 C 9.003906 7.667969 8.957031 7.160156 8.859375 6.660156 C 8.761719 6.15625 8.617188 5.667969 8.429688 5.191406 C 8.238281 4.71875 8.003906 4.265625 7.730469 3.835938 C 7.453125 3.402344 7.136719 3.003906 6.785156 2.632812 C 6.433594 2.261719 6.046875 1.929688 5.632812 1.632812 C 5.214844 1.335938 4.773438 1.078125 4.308594 0.867188 C 3.84375 0.652344 3.363281 0.488281 2.867188 0.367188 C 2.371094 0.246094 1.867188 0.171875 1.355469 0.144531 L 2.660156 0.144531 C 3.1875 0.144531 3.710938 0.199219 4.230469 0.300781 C 4.746094 0.402344 5.25 0.554688 5.738281 0.757812 C 6.222656 0.957031 6.6875 1.207031 7.125 1.5 C 7.566406 1.792969 7.972656 2.125 8.34375 2.496094 C 8.71875 2.871094 9.050781 3.277344 9.34375 3.714844 C 9.640625 4.152344 9.886719 4.617188 10.089844 5.105469 C 10.292969 5.589844 10.445312 6.09375 10.546875 6.609375 C 10.652344 7.128906 10.703125 7.652344 10.703125 8.179688 Z M 10.703125 8.179688 " fill-opacity="1" fill-rule="nonzero"/></g></g></g></g><g mask="url(#dbe541cf17)"><g transform="matrix(1, 0, 0, 1, 34, 34)"><g clip-path="url(#11bfbb1610)"><g clip-path="url(#d590e7f08a)"><path fill="#545454" d="M 10.257812 8.753906 L 10.257812 12.945312 C 9.691406 13.210938 9.09375 13.332031 8.46875 13.308594 C 8.183594 13.308594 7.902344 13.285156 7.621094 13.238281 C 7.949219 13.183594 8.261719 13.085938 8.5625 12.945312 L 8.5625 8.753906 C 8.5625 8.242188 8.515625 7.734375 8.417969 7.234375 C 8.320312 6.730469 8.175781 6.242188 7.988281 5.765625 C 7.796875 5.289062 7.5625 4.835938 7.289062 4.40625 C 7.011719 3.972656 6.695312 3.574219 6.34375 3.203125 C 5.992188 2.828125 5.605469 2.496094 5.191406 2.195312 C 4.773438 1.898438 4.332031 1.644531 3.867188 1.429688 C 3.402344 1.214844 2.921875 1.046875 2.421875 0.925781 C 1.925781 0.800781 1.421875 0.726562 0.910156 0.699219 L 2.183594 0.699219 C 2.710938 0.699219 3.238281 0.75 3.757812 0.855469 C 4.277344 0.957031 4.78125 1.109375 5.269531 1.3125 C 5.757812 1.515625 6.222656 1.761719 6.664062 2.054688 C 7.105469 2.351562 7.511719 2.683594 7.886719 3.058594 C 8.261719 3.429688 8.597656 3.839844 8.890625 4.277344 C 9.183594 4.71875 9.433594 5.183594 9.636719 5.671875 C 9.839844 6.160156 9.996094 6.664062 10.097656 7.183594 C 10.203125 7.703125 10.253906 8.226562 10.257812 8.753906 Z M 10.257812 8.753906 " fill-opacity="1" fill-rule="nonzero"/></g></g></g></g><g clip-path="url(#84b2c772b0)"><path fill="#545454" d="M 50.996094 47.667969 C 50.171875 47.6875 49.40625 47.492188 48.691406 47.082031 C 48.46875 46.957031 48.242188 46.851562 48.003906 46.757812 C 47.839844 46.703125 47.761719 46.589844 47.761719 46.417969 L 47.761719 32.480469 C 47.757812 32.164062 47.699219 31.859375 47.578125 31.570312 C 47.453125 31.277344 47.28125 31.019531 47.058594 30.796875 C 46.835938 30.570312 46.578125 30.398438 46.285156 30.277344 C 45.992188 30.15625 45.691406 30.09375 45.375 30.09375 C 45.273438 30.09375 45.1875 30.058594 45.117188 29.988281 C 45.046875 29.917969 45.011719 29.832031 45.011719 29.730469 L 45.011719 23.136719 C 45.011719 23.035156 45.046875 22.949219 45.117188 22.878906 C 45.1875 22.808594 45.273438 22.773438 45.375 22.773438 L 46.660156 22.773438 C 47.210938 22.773438 47.757812 22.828125 48.300781 22.9375 C 48.839844 23.042969 49.367188 23.203125 49.875 23.414062 C 50.386719 23.625 50.871094 23.886719 51.328125 24.191406 C 51.789062 24.5 52.210938 24.847656 52.601562 25.238281 C 52.992188 25.628906 53.339844 26.050781 53.648438 26.511719 C 53.953125 26.96875 54.214844 27.453125 54.425781 27.964844 C 54.636719 28.472656 54.796875 29 54.90625 29.539062 C 55.011719 30.082031 55.066406 30.628906 55.066406 31.179688 L 55.066406 46.238281 C 55.066406 46.332031 55.039062 46.410156 54.976562 46.480469 C 54.914062 46.550781 54.835938 46.589844 54.742188 46.601562 C 54.222656 46.660156 53.742188 46.820312 53.289062 47.082031 C 52.582031 47.492188 51.816406 47.6875 50.996094 47.667969 Z M 48.457031 46.167969 C 48.65625 46.25 48.820312 46.347656 49.011719 46.4375 C 49.625 46.773438 50.277344 46.945312 50.980469 46.945312 C 51.679688 46.945312 52.332031 46.773438 52.945312 46.4375 C 53.378906 46.191406 53.839844 46.019531 54.328125 45.921875 L 54.328125 31.179688 C 54.328125 30.675781 54.277344 30.175781 54.179688 29.683594 C 54.082031 29.1875 53.933594 28.710938 53.742188 28.242188 C 53.550781 27.777344 53.3125 27.335938 53.035156 26.917969 C 52.753906 26.5 52.4375 26.109375 52.082031 25.753906 C 51.726562 25.398438 51.339844 25.078125 50.917969 24.800781 C 50.5 24.519531 50.058594 24.28125 49.59375 24.089844 C 49.128906 23.894531 48.652344 23.75 48.15625 23.648438 C 47.664062 23.550781 47.164062 23.5 46.660156 23.496094 L 45.722656 23.496094 L 45.722656 29.390625 C 46.101562 29.4375 46.457031 29.546875 46.796875 29.722656 C 47.132812 29.898438 47.429688 30.128906 47.683594 30.414062 C 47.933594 30.699219 48.128906 31.019531 48.265625 31.375 C 48.402344 31.730469 48.46875 32.101562 48.472656 32.480469 Z M 54.691406 46.238281 Z M 54.691406 46.238281 " fill-opacity="1" fill-rule="nonzero"/></g><path fill="#545454" d="M 42.472656 47.683594 C 41.648438 47.703125 40.882812 47.503906 40.171875 47.09375 C 39.566406 46.738281 38.914062 46.570312 38.210938 46.585938 C 38.042969 46.585938 37.871094 46.59375 37.703125 46.609375 C 37.597656 46.621094 37.503906 46.589844 37.421875 46.519531 C 37.34375 46.445312 37.304688 46.355469 37.304688 46.246094 L 37.304688 44.027344 C 37.304688 43.710938 37.242188 43.40625 37.121094 43.117188 C 37 42.824219 36.828125 42.566406 36.605469 42.34375 C 36.378906 42.117188 36.121094 41.945312 35.832031 41.824219 C 35.539062 41.703125 35.234375 41.640625 34.917969 41.640625 C 34.816406 41.640625 34.730469 41.605469 34.660156 41.535156 C 34.589844 41.464844 34.554688 41.378906 34.554688 41.28125 L 34.554688 34.699219 C 34.554688 34.601562 34.589844 34.515625 34.660156 34.445312 C 34.730469 34.375 34.816406 34.335938 34.917969 34.335938 L 36.195312 34.335938 C 36.746094 34.339844 37.292969 34.394531 37.835938 34.503906 C 38.378906 34.609375 38.902344 34.769531 39.414062 34.984375 C 39.925781 35.195312 40.410156 35.453125 40.867188 35.761719 C 41.328125 36.070312 41.753906 36.417969 42.144531 36.808594 C 42.535156 37.199219 42.882812 37.625 43.191406 38.082031 C 43.5 38.542969 43.757812 39.027344 43.972656 39.535156 C 44.183594 40.046875 44.34375 40.574219 44.453125 41.113281 C 44.5625 41.65625 44.617188 42.203125 44.621094 42.753906 L 44.621094 46.945312 C 44.617188 47.097656 44.550781 47.207031 44.414062 47.269531 C 43.800781 47.5625 43.152344 47.703125 42.472656 47.683594 Z M 38.210938 45.859375 C 39.03125 45.839844 39.800781 46.039062 40.511719 46.449219 C 41.117188 46.808594 41.773438 46.976562 42.480469 46.957031 C 42.96875 46.972656 43.445312 46.890625 43.902344 46.707031 L 43.902344 42.753906 C 43.898438 42.25 43.847656 41.75 43.75 41.253906 C 43.648438 40.757812 43.503906 40.277344 43.308594 39.808594 C 43.113281 39.34375 42.875 38.898438 42.59375 38.480469 C 42.3125 38.058594 41.992188 37.671875 41.632812 37.316406 C 41.277344 36.957031 40.886719 36.640625 40.464844 36.359375 C 40.046875 36.078125 39.601562 35.839844 39.132812 35.648438 C 38.667969 35.457031 38.183594 35.308594 37.6875 35.210938 C 37.195312 35.113281 36.691406 35.0625 36.1875 35.0625 L 35.273438 35.0625 L 35.273438 40.9375 C 35.652344 40.984375 36.007812 41.09375 36.347656 41.269531 C 36.683594 41.445312 36.980469 41.675781 37.234375 41.960938 C 37.488281 42.246094 37.679688 42.566406 37.816406 42.921875 C 37.953125 43.277344 38.019531 43.648438 38.023438 44.027344 L 38.023438 45.863281 Z M 44.265625 46.949219 Z M 44.265625 46.949219 " fill-opacity="1" fill-rule="nonzero"/></svg>