<?xml version="1.0" encoding="utf-8"?>
<!-- Generator: Adobe Illustrator 24.0.2, SVG Export Plug-In . SVG Version: 6.00 Build 0)  -->
<svg version="1.1" id="Capa_1" xmlns="http://www.w3.org/2000/svg" xmlns:xlink="http://www.w3.org/1999/xlink" x="0px" y="0px"
	 viewBox="0 0 95.04 101.47" style="enable-background:new 0 0 95.04 101.47;" xml:space="preserve">
<style type="text/css">
	.st0{opacity:0.33;}
	.st1{fill:#729E2D;}
	.st2{fill:#11202E;}
	.st3{opacity:0.5;fill:#729E2D;enable-background:new    ;}
	.st4{opacity:0.67;}
	.st5{fill:#3C3C3B;}
	.st6{fill:none;stroke:#575756;stroke-miterlimit:10;}
	.st7{fill:none;stroke:#575756;stroke-width:1;stroke-miterlimit:9.9999;}
</style>
<g class="st0">
	<g>
		<g>
			<path class="st1" d="M170.52-298.3c7.05,6.41,7.78,16.43,13.15,23.87c2.66,3.69,6.31,6.72,10.48,8.8
				c2.63,1.31,5.62,1.93,8.43,2.87c0.04,0.03,0.07,0.06,0.11,0.08c0.03,0.02,0.07,0.01,0.1-0.01c1.34,0.46,2.64,1,3.83,1.73
				c3.42,3.39,7.17,6.49,11.21,9.14c2.91,1.91,6.13,3.6,9.62,4.26c1.42,0.27,4.48,1.05,5.31-0.47c0.02-0.04-0.04-0.06-0.07-0.02
				c-0.99,1.76-6.07,0.21-7.49-0.26c-1.8-0.6-3.51-1.43-5.13-2.38c-2.95-1.72-5.68-3.82-8.27-6.01
				c-5.47-4.61-10.15-9.91-14.24-15.65c-0.58-0.81-1.15-1.63-1.72-2.46c1.74,1.06,3.31,2.2,4.79,3.58c1.05,3.14,2.48,6.11,5.02,8.53
				c0.07,0.06,0.21-0.05,0.15-0.13c-3.22-3.83-4.42-8.38-5.56-12.96l0,0l0,0c-0.85-3.41-1.68-6.84-3.3-10.02
				c-4.59-9.02-16.21-11.45-25.57-13.3c-0.15-0.03-0.32,0.2-0.14,0.24c3.2,0.7,6.47,1.54,9.64,2.62c-1.17-0.04-2.36,0-3.52,0.09
				c-0.84-0.21-1.67-0.47-2.46-0.81c-0.02-0.01-0.04,0-0.06,0.01c-1.13-0.57-2.31-1.08-3.56-1.51c-0.1-0.03-0.2,0.03-0.24,0.11
				c-0.08-0.07-0.17-0.15-0.25-0.23C170.63-298.71,170.36-298.45,170.52-298.3z M184.32-294.96c-2.02-0.39-4.12-0.58-6.14-1.01
				c1.08-0.02,2.15-0.05,3.22-0.1C182.39-295.72,183.36-295.35,184.32-294.96z M189.52-292.35c-3.06-1.19-6.78-0.7-9.94-1.64
				c-0.88-0.65-1.78-1.27-2.73-1.84c2.91,1.07,6.21,0.97,9.28,1.68c0.59,0.27,1.17,0.56,1.74,0.86
				C188.44-293.01,188.99-292.69,189.52-292.35z M194.01-288.43c-3.38-2.74-8.65-2.34-12.61-4.12c-0.5-0.42-1.01-0.83-1.53-1.22
				c3.36,1.11,7.1,0.43,10.28,1.84C191.63-290.91,192.92-289.75,194.01-288.43z M195.56-286.24c-3.04-2.58-8.04-3.15-11.75-4.08
				c-0.72-0.72-1.46-1.41-2.23-2.07c4.11,2,9.46,1.3,12.85,4.49C194.84-287.38,195.21-286.82,195.56-286.24z M196.81-283.84
				c-1.59-1.09-3.58-1.44-5.55-1.85c-1.72-0.47-3.45-0.96-4.88-1.91c-0.78-0.89-1.58-1.75-2.4-2.58c3.8,1,8.72,1.54,11.74,4.17
				C196.11-285.31,196.48-284.59,196.81-283.84z M197.09-283.2c-0.64-0.55-1.37-0.96-2.15-1.3c0.71,0.25,1.38,0.57,2.02,0.99
				c0.03,0.08,0.07,0.15,0.1,0.23C197.07-283.25,197.08-283.22,197.09-283.2z M198.94-277.24c-2.11-2.1-4.79-3.63-7.79-4.27
				c-1.37-1.88-2.78-3.73-4.29-5.5c1.46,0.92,3.12,1.31,4.78,1.67c2.02,0.53,4.04,1.05,5.55,2.42
				C197.91-281.1,198.43-279.18,198.94-277.24z M199.12-276.58c-0.65-0.67-1.47-1.15-2.36-1.67c-1.77-1.03-3.54-2.07-5.33-3.06
				c2.93,0.85,5.44,2.21,7.56,4.26C199.03-276.9,199.07-276.74,199.12-276.58z M195.55-275.23c-1.36-1.96-2.72-3.95-4.14-5.92
				c1.29,0.76,2.59,1.49,3.89,2.23c1.32,0.75,2.83,1.44,3.87,2.54c0.43,1.65,0.86,3.3,1.39,4.91
				C199.14-272.98,197.43-274.3,195.55-275.23z M200.31-268.01c0.46,0.58,0.93,1.17,1.41,1.73c1.33,1.58,2.74,3.13,4.21,4.62
				c-0.91-0.54-1.91-0.96-2.95-1.33C201.55-264.39,201.14-266.29,200.31-268.01z M202.26-263.24c-1.61-1.52-1.78-3.8-2.69-5.72
				c0.16,0.21,0.33,0.41,0.49,0.62c0.85,1.76,1.19,3.8,2.58,5.23C202.51-263.15,202.38-263.2,202.26-263.24z M199.65-264.04
				c-2.92-3.08-2.84-7.36-4.49-10.98c1.35,1.93,2.71,3.84,4.13,5.69c0.94,1.97,1.1,4.35,2.61,5.96
				C201.15-263.6,200.4-263.82,199.65-264.04z M197.56-264.7c-2.28-1.39-1.89-4.54-2.27-6.8c-0.3-1.8-0.76-3.59-1.39-5.32
				c0.21,0.29,0.41,0.59,0.62,0.88c1.96,3.81,1.76,8.48,4.74,11.78C198.68-264.34,198.11-264.51,197.56-264.7z M192.11-267.45
				c-2.07-4.56-0.06-9.84-1.83-14.39c0.02,0.01,0.04,0.02,0.05,0.03c1.14,1.54,2.25,3.11,3.35,4.68c0.87,2.87,1.42,5.66,1.78,8.66
				c0.16,1.37,0.44,2.66,1.42,3.52c-0.61-0.23-1.2-0.47-1.75-0.75C194.09-266.21,193.08-266.8,192.11-267.45z M189.53-269.37
				c-1.75-4.46,1.53-9.21-0.1-13.65c0.17,0.22,0.33,0.44,0.49,0.66c1.86,4.73-0.1,9.96,1.84,14.67
				C190.99-268.22,190.24-268.77,189.53-269.37z M185.89-272.98c-0.35-4.98,1.65-10.75-0.86-15.32c1.48,1.6,2.87,3.29,4.2,5.03
				c1.46,4.49-1.6,9.18-0.1,13.57C187.96-270.71,186.88-271.81,185.89-272.98z M185.04-274.03c-0.66-5.1,1.58-10.68-1.08-15.39
				c0.23,0.24,0.46,0.49,0.69,0.73c2.74,4.78,0.57,10.25,1.03,15.45C185.47-273.5,185.25-273.76,185.04-274.03z M184.44-274.82
				c-1-4.77,1.47-9.87-0.46-14.43c2.41,4.7,0.23,9.98,0.87,14.98C184.72-274.46,184.57-274.64,184.44-274.82z M181.87-279.18
				c-1.99-4.53,0.13-10.16-2.6-14.4c1.59,1.2,3.07,2.51,4.47,3.91c1.95,4.74-0.43,9.71,0.5,14.55c-0.15-0.22-0.31-0.44-0.45-0.67
				c-0.71-1.09-1.34-2.21-1.91-3.36C181.87-279.15,181.88-279.17,181.87-279.18z M180.09-283.02c-0.68-3.47,0.65-8.03-1.34-10.94
				c0.07,0.05,0.14,0.11,0.21,0.16c2.34,3.86,0.88,8.35,1.86,12.46C180.57-281.9,180.33-282.46,180.09-283.02z M177.78-288.45
				c-0.62-2.44-0.4-5.13-1.75-7.3c0.69,0.41,1.36,0.84,2.01,1.29c2.36,3.12,1.15,6.96,1.69,10.58
				C179.08-285.42,178.46-286.95,177.78-288.45z M171.36-298.06c1.57,0.62,3.04,1.35,4.43,2.16c1.13,1.93,1.07,4.15,1.44,6.26
				C175.77-292.7,174.01-295.61,171.36-298.06z"/>
			<path class="st1" d="M206.94-289.98c0.27,6.85,0.64,13.89,1.61,20.7c0.66,4.62,2.35,9.69,6.22,12.8c0,0.02-0.01,0.05-0.01,0.07
				c-0.01,0.07,0.07,0.06,0.12,0.03l0.01,0.01c0.01,0.02,0.02,0.03,0.04,0.03c0.51,0.4,1.05,0.76,1.64,1.09
				c0.07,0.04,0.17-0.05,0.1-0.11c-0.59-0.44-1.14-0.9-1.64-1.38c0.05-1.64,0.84-3.2,1.22-4.79c0.24,2.03,0.43,4.07,0.68,6.14
				c-0.06,0.08-0.11,0.16-0.17,0.24c-0.18,0.23,0.04,0.42,0.24,0.36c0,0.01,0,0.01,0,0.02c0.01,0.07,0.11,0.04,0.12-0.02
				c0-0.02,0-0.05,0-0.07c0.01-0.01,0.02-0.01,0.02-0.02c0.47-0.58,0.89-1.2,1.28-1.82c0.08-0.09,0.14-0.19,0.18-0.3
				c0.49-0.85,0.9-1.73,1.24-2.63c0.01,0,0.02,0,0.03-0.01c0.02-0.05,0.03-0.1,0.04-0.15c1.55-4.28,1.41-9.08-0.08-13.51
				c-2.26-6.7-7.23-12.06-12.42-16.93C207.23-290.36,206.93-290.15,206.94-289.98z M215.47-280.23c0.26,0.4,0.52,0.8,0.76,1.2
				c-2.11-1.48-4.1-3.02-5.92-4.82c-0.25-0.54-0.49-1.08-0.75-1.62C211-283.31,213.66-282.13,215.47-280.23z M218.89-273.75
				c-1.77-2.17-4.83-3.3-6.59-5.56c-0.55-1.37-1.15-2.72-1.76-4.06c1.75,1.78,3.72,3.42,5.9,4.68
				C217.4-277.08,218.23-275.43,218.89-273.75z M219.47-272.09c-2.28-2.19-5.23-3.55-6.84-6.41c-0.01-0.03-0.03-0.07-0.04-0.1
				c1.75,2.25,5,3.27,6.61,5.69C219.29-272.64,219.38-272.36,219.47-272.09z M220.25-268.78c-1.42-1.77-4.09-2.44-5.67-4.14
				c-0.47-1.53-1-3.05-1.57-4.56c1.43,2.4,4.33,3.93,6.55,5.69C219.86-270.79,220.1-269.79,220.25-268.78z M220.45-266.9
				c-1.3-2.17-4.22-2.91-5.6-5.08c-0.06-0.21-0.12-0.41-0.18-0.62c1.52,1.78,4.16,2.45,5.65,4.32
				C220.39-267.82,220.43-267.36,220.45-266.9z M220.05-261.9c-0.76-1.94-2.93-3.31-3.97-5.16c-0.31-1.49-0.67-2.97-1.08-4.44
				c1.4,2.01,4.25,2.7,5.47,4.87C220.54-265.05,220.42-263.46,220.05-261.9z M214.79-269.76c0.1,0.39,0.2,0.77,0.29,1.16
				c0.11,2.67-1.1,5.18-1.65,7.8C213.62-263.82,214.77-266.78,214.79-269.76z M217-260.81c0.57,0.89,1.32,2.04,1.48,3.01
				c-0.39,0.71-0.83,1.42-1.34,2.12C217.19-257.4,217.14-259.11,217-260.81z M216.43-265.26c0.5,0.73,1,1.46,1.51,2.18
				c0.47,0.67,1.37,1.6,1.74,2.5c-0.28,0.86-0.64,1.71-1.08,2.55c-0.02-0.05-0.03-0.11-0.05-0.16c-0.36-0.97-0.98-1.95-1.57-2.87
				C216.85-262.47,216.67-263.87,216.43-265.26z M216.02-263.3c0.06,0.42,0.11,0.83,0.16,1.25c-0.18,0.88-0.51,1.74-0.79,2.6
				C215.6-260.73,215.81-262.02,216.02-263.3z M216.19-266.55c0.38,0.76,0.97,1.43,1.56,2.07c0.89,0.96,1.66,1.85,2.19,2.99
				c-0.06,0.24-0.14,0.48-0.21,0.71c-0.26-0.54-0.73-1.05-1.05-1.51c-0.76-1.09-1.52-2.18-2.3-3.25
				C216.32-265.87,216.26-266.21,216.19-266.55z M215.21-268c0.31,1.43,0.55,2.86,0.75,4.3c-0.51,2.23-0.85,4.51-1.14,6.78
				c-0.47-0.45-0.89-0.93-1.29-1.42c-0.07-0.42-0.1-0.84-0.12-1.26C213.79-262.43,215.22-265.18,215.21-268z M212.07-260.47
				c-0.24-4.2,1.88-8.21,1.77-12.37c0.03,0.07,0.05,0.14,0.08,0.21c0.24,0.68,0.46,1.36,0.65,2.03c-0.04,3.79-1.78,7.44-1.35,11.22
				c-0.02,0.19-0.03,0.39-0.04,0.59C212.77-259.33,212.4-259.89,212.07-260.47z M210.29-266.15c0.59-3.33,2.51-6.44,2.4-9.82
				c0.31,0.84,0.62,1.68,0.92,2.52c0.06,4.3-2.03,8.36-1.72,12.68c-0.65-1.17-1.17-2.4-1.58-3.68
				C210.25-265.02,210.25-265.58,210.29-266.15z M210.44-267.43c0.51-3.16,1.96-6.26,1.92-9.42c0.08,0.21,0.16,0.41,0.24,0.62
				C212.73-273.18,211.21-270.37,210.44-267.43z M209.84-283.16c0.8,1.92,1.56,3.85,2.3,5.79c0.1,3.98-2.04,7.71-2.06,11.72
				c-0.01,0.11-0.03,0.21-0.04,0.32c-0.54-1.93-0.87-3.96-1.07-6.02c-0.15-1.48-0.27-2.97-0.38-4.45
				C208.77-278.26,209.9-280.72,209.84-283.16z M209.16-280.16c0.13-1.5,0.15-3.02,0.04-4.52c0.11,0.26,0.23,0.52,0.34,0.78
				C209.64-282.63,209.43-281.39,209.16-280.16z M207.66-288.14c0.48,1.04,0.94,2.08,1.39,3.13c0.03,2.69-0.14,5.28-0.56,7.92
				C208.22-280.77,208.01-284.46,207.66-288.14z M207.69-289.22c2.42,2.22,4.79,4.8,6.82,7.61c-1.84-1.56-4.18-2.81-5.42-4.84
				C208.63-287.38,208.17-288.31,207.69-289.22z"/>
			<path class="st1" d="M184.03-253.39c4.1,2.88,9.17,4.45,14.25,4.1c2.01-0.14,4.05-0.61,5.68-1.75c1.13-0.79,1.9-1.9,2.77-2.92
				l0,0c0.01,0,0.01-0.01,0.01-0.01c0.47-0.54,0.96-1.06,1.56-1.49c0.22-0.16,0.09-0.46-0.19-0.36c-0.07,0.03-0.14,0.06-0.22,0.09
				c-1.75-1.38-3.72-2.31-5.78-2.84c-0.01-0.01-0.03-0.02-0.06-0.02l0,0c-2.89-0.74-5.96-0.72-8.88-0.05l0,0
				c0.01-0.05-0.06-0.05-0.08-0.01c-0.01,0.01-0.01,0.02-0.02,0.04c-1.4,0.32-2.76,0.79-4.05,1.38l0,0
				c-1.75,0.81-3.37,1.85-4.76,3.08c-0.11,0.1-0.09,0.2-0.03,0.26C184-253.84,183.8-253.54,184.03-253.39z M188.8-256.86
				c-0.41,0.72-0.94,1.35-1.59,1.86c-0.61,0.16-1.2,0.35-1.76,0.59h-0.01c-0.06-0.02-0.13,0.03-0.15,0.08
				c-0.14,0.06-0.28,0.12-0.41,0.19C186.07-255.23,187.38-256.14,188.8-256.86z M186.27-254.34c3.67-0.19,6.61,1.79,9.82,3.06
				c-3.37-0.97-6.76-1.88-10.09-2.96C186.09-254.27,186.17-254.31,186.27-254.34z M192.91-258.35c-0.66,1.15-1.4,2.11-2.53,2.82
				c-1.03,0.11-2.07,0.26-3.05,0.51c0.66-0.53,1.2-1.16,1.61-1.9C190.19-257.56,191.52-258.03,192.91-258.35z M193.73-258.53
				c-0.26,0.16-0.47,0.39-0.66,0.66c-0.63,0.92-1.16,1.7-2.03,2.27c-0.16,0.01-0.32,0.03-0.48,0.05c1.13-0.65,2.14-1.65,2.53-2.84
				C193.3-258.44,193.51-258.49,193.73-258.53z M197.09-258.83c-1.23,0.54-1.83,2.4-3.09,3.01c-0.27,0.02-0.55,0.04-0.83,0.05
				c-0.02-0.01-0.04-0.02-0.05-0.02c-0.02-0.01-0.06,0.01-0.07,0.03c-0.43,0.03-0.86,0.06-1.3,0.09c-0.02-0.01-0.04,0-0.06,0
				c-0.15,0.01-0.29,0.03-0.44,0.04c0.3-0.18,0.57-0.38,0.82-0.63c0.68-0.66,1.06-2.03,2.02-2.35c0.15-0.02,0.3-0.05,0.45-0.07
				c0.02,0,0.05,0,0.07,0c0.01,0,0.02,0,0.03-0.01c0.14-0.02,0.29-0.04,0.43-0.06C195.77-258.81,196.44-258.83,197.09-258.83z
				 M201.14-258.32c-1.01,0.52-1.67,1.64-2.66,2.2c-1.25,0.07-2.48,0.16-3.68,0.26c-0.18,0.01-0.37,0.03-0.56,0.04
				c1.29-0.66,1.79-2.64,3.16-2.99C198.68-258.79,199.93-258.61,201.14-258.32z M202.27-258.02c-0.92,0.29-1.68,1.25-2.52,1.83
				c-0.36,0.01-0.72,0.03-1.09,0.05c0.99-0.56,1.69-1.64,2.75-2.12C201.71-258.18,201.99-258.1,202.27-258.02z M202.61-257.91
				c0.15,0.05,0.29,0.1,0.44,0.15c-1.11,0.27-2.21,0.82-3.03,1.56c-0.02,0-0.05,0-0.07,0C200.84-256.8,201.61-257.78,202.61-257.91z
				 M207.47-255.84c-2.35-0.39-4.83-0.45-7.29-0.37c0.96-0.7,1.96-1.16,3.14-1.46C204.72-257.17,206.1-256.56,207.47-255.84z
				 M205.46-254.08c-1.42-0.31-2.67-1.19-4.09-1.54c2.1,0,4.2,0.01,6.29-0.12c0.03,0.02,0.07,0.04,0.1,0.05
				C206.87-255.28,206.16-254.71,205.46-254.08z M205-253.64c-1.93,0.25-3.99-1.01-5.74-1.96c0.44-0.01,0.89-0.01,1.33-0.01
				c1.68,0.18,3.12,1.37,4.74,1.66C205.22-253.85,205.11-253.74,205-253.64z M203.18-252.17c-1.86,0.2-3.58-0.8-5.23-1.53
				c-1.27-0.56-2.53-1.14-3.82-1.67c0.69-0.03,1.35-0.06,1.96-0.1c0.95-0.06,1.9-0.1,2.85-0.11c1.73,0.97,3.93,2.39,5.91,2.09
				c-0.05,0.05-0.09,0.09-0.14,0.13C204.22-252.9,203.71-252.51,203.18-252.17z M202.37-251.73c-3.37,0.15-6.91-2.06-9.87-3.57
				c0.43-0.02,0.85-0.05,1.26-0.06c1.71,0.82,3.46,1.56,5.19,2.32c1.3,0.57,2.5,1.16,3.89,1.07
				C202.69-251.89,202.53-251.8,202.37-251.73z M198.41-250.78c-3.91-1.01-7.34-3.89-11.45-3.78c0.96-0.26,1.99-0.42,3.04-0.54
				c0,0.01,0.01,0.02,0.02,0.01c0.02-0.01,0.04-0.02,0.06-0.02c0.69-0.08,1.39-0.14,2.08-0.18c2.87,1.47,6.45,3.85,9.81,3.72
				c-1.05,0.45-2.2,0.7-3.49,0.77C198.47-250.78,198.44-250.78,198.41-250.78z M184.79-253.72c0.28-0.15,0.58-0.28,0.89-0.4
				c3.76,1.21,7.58,2.46,11.44,3.37C192.9-250.8,188.62-252.05,184.79-253.72z"/>
		</g>
		<g>
			<path class="st2" d="M156.09-335.56c0.04-0.02,0.08-0.03,0.12-0.05c2.13,7.92,5.29,16.14,12.25,21.46
				c7.42,5.68,17.1,5.31,25.98,6.59c2.18,3.3,4.05,6.78,5.59,10.39c1.14,2.67,2.11,5.39,2.88,8.17c0.83,3.01,1.19,6.08,1.89,9.11
				c0.01,0.06,0.11,0.02,0.11-0.03c-0.03-6.04-2.21-12.56-4.6-18.14c-1.38-3.21-3.04-6.31-4.94-9.27c0.07,0.06,0.21-0.02,0.17-0.11
				c-1.02-2.6-0.72-5.6-1.14-8.33c-0.42-2.68-1.09-5.32-2.01-7.89c-1.62-4.53-4.06-8.05-8.62-10.33c-8.5-4.27-19.01-5.66-27.79-1.9
				C155.75-335.79,155.82-335.46,156.09-335.56z M165.83-337.46c-2.41,0.52-4.71,1.67-7.12,2.2c-0.63-0.2-1.25-0.4-1.88-0.58
				C159.63-336.85,162.69-337.38,165.83-337.46z M166.85-337.47c1.3,0,2.6,0.09,3.9,0.24c-3.6,0.39-6.98,2.32-10.67,2.44
				c-0.33-0.11-0.65-0.23-0.98-0.34C161.78-335.56,164.19-336.94,166.85-337.47z M173.01-336.91c-3.69,0.29-7.11,2.31-10.78,2.9
				c-0.57-0.22-1.15-0.43-1.73-0.63c3.88-0.18,7.36-2.12,11.21-2.47C172.15-337.05,172.58-336.99,173.01-336.91z M184.58-332.66
				c-0.03-0.01-0.06-0.02-0.09-0.02c-5.44-2.88-12.41-0.22-18.24,0.35c-1.24-0.56-2.49-1.1-3.76-1.59c3.83-0.38,7.3-2.35,11.13-2.88
				C177.56-336.02,181.35-334.61,184.58-332.66z M183.07-333.05c-4.53-0.96-9.41,0.1-14.08,0.61
				C173.77-333.11,178.51-334.51,183.07-333.05z M190.1-326.72c-1.3-1.08-2.81-1.68-4.44-1.99c-0.57-0.15-1.14-0.28-1.68-0.39
				c-3.9-0.79-7.41,0.18-11.24,0.15c-1.93-1.13-3.91-2.18-5.94-3.13c5.95-0.14,11.85-2.1,17.63-0.45c0.52,0.24,1.03,0.51,1.55,0.83
				c0.01,0,0.01,0,0.02-0.01C187.78-330.33,189.09-328.61,190.1-326.72z M181.37-329.32c1.02,0.07,2.13,0.21,3.25,0.45
				c-3.68-0.43-7.81,0.35-11.34,0.23c-0.08-0.05-0.16-0.09-0.24-0.14C175.81-328.77,178.54-329.51,181.37-329.32z M192.63-320.04
				c-2.94-3.3-8.65-3.76-13-4.28c-1.93-1.47-3.94-2.85-6.03-4.11c4.58,0.21,9.66-1.08,13.86,0.43c1.05,0.43,2.02,0.98,2.84,1.67
				c0.98,1.93,1.68,4.02,2.27,6.1C192.6-320.17,192.61-320.1,192.63-320.04z M192.87-319.09c-0.95-1.21-2.48-1.82-4.08-2.31
				c-2.84-0.88-5.7-1.71-8.57-2.47c-0.12-0.09-0.25-0.18-0.37-0.28c4.5,0.71,9.82,1.01,12.85,4.41
				C192.76-319.52,192.82-319.31,192.87-319.09z M193.88-313.98c-1.66-1.56-4.31-1.86-6.21-3.17c-2.15-2.25-4.47-4.36-6.93-6.31
				c1.81,0.55,3.64,1.05,5.46,1.56c2.39,0.67,5.22,1.15,6.75,3.12C193.35-317.19,193.66-315.59,193.88-313.98z M190.31-314.22
				c-0.62-0.74-1.26-1.45-1.92-2.16c1.78,0.98,3.96,1.28,5.52,2.62c0.06,0.47,0.12,0.95,0.17,1.42c0.17,1.58,0.19,3.09,0.95,4.48
				C193.6-310.07,192.02-312.2,190.31-314.22z M188.98-308.97c-3.51-3.17-3.45-8.05-6-11.73c2.5,2.2,4.85,4.57,7,7.14
				c1.49,1.78,2.87,3.63,4.15,5.54C192.43-308.41,190.71-308.7,188.98-308.97z M186.69-309.32c-2.09-3.83-2.01-8.58-4.57-12.15
				c0.21,0.18,0.41,0.36,0.61,0.54c2.5,3.72,2.39,8.79,5.87,11.89C187.96-309.13,187.33-309.22,186.69-309.32z M181.93-310.1
				c-2.92-1.91-3.07-7.49-3.88-10.41c-0.62-2.26-1.5-4.44-3.06-6.25c2.33,1.52,4.57,3.17,6.7,4.95c2.58,3.83,2.45,8.52,4.73,12.45
				C184.92-309.58,183.42-309.82,181.93-310.1z M178.96-310.73c-2-3.02-1.52-7.11-2.26-10.51c-0.51-2.33-1.41-4.65-3.09-6.41
				c0.36,0.22,0.71,0.45,1.06,0.68c2.33,2.85,3.15,6.23,3.91,9.71c0.48,2.2,0.8,5.43,2.76,7.04
				C180.55-310.37,179.75-310.53,178.96-310.73z M176.72-311.36c-6.21-5.47-6.15-14.52-11.38-20.69c2.6,1.18,5.12,2.5,7.54,3.95
				c2.64,2.78,3.52,6.21,3.98,9.93c0.31,2.5,0.27,5.18,1.72,7.33C177.95-310.99,177.33-311.16,176.72-311.36z M171.15-313.84
				c-2.54-3.55-2.75-7.73-3.59-11.83c-0.47-2.3-1.19-5.23-3.19-6.82c0.27,0.12,0.53,0.24,0.8,0.37c5.02,6.15,5.07,15.01,10.89,20.54
				C174.36-312.16,172.72-312.88,171.15-313.84z M167.26-316.82c-1.81-2.77-3.07-5.66-4.01-8.84c-0.83-2.81-1.1-6.17-3.09-8.53
				c1.22,0.45,2.42,0.92,3.61,1.43c3.14,2.22,3.48,6.99,4.03,10.34c0.48,2.91,1.09,5.74,2.76,8.21c-0.31-0.2-0.62-0.41-0.93-0.64
				C168.8-315.46,168.01-316.12,167.26-316.82z M161.25-328.89c-0.36-1.85-0.59-4.13-1.95-5.61c0.21,0.07,0.41,0.16,0.62,0.23
				c2.22,2.79,2.48,6.85,3.51,10.11c0.67,2.11,1.5,4.24,2.66,6.19c-0.97-1.02-1.87-2.1-2.68-3.23
				C162.29-323.65,161.78-326.22,161.25-328.89z M156.65-335.4c0.79,0.25,1.58,0.51,2.36,0.79c1.83,2.1,1.96,5.34,2.48,7.89
				c0.31,1.56,0.69,3.1,1.26,4.57C160.02-326.21,158.14-330.82,156.65-335.4z"/>
			<path class="st2" d="M204.57-290.99c0.02,0.05,0.09,0.01,0.08-0.03c-0.09-0.39-0.15-0.77-0.21-1.16c0.07-1.07,0.5-2.06,0.77-3.08
				c-0.09,1.64-0.19,3.27-0.3,4.91c-0.02,0.3,0.41,0.18,0.51,0.03c1.67-2.46,4.85-4.91,4.87-8.13c0.01-2.89-2.93-4.7-3.47-7.43
				c-0.07-0.36-0.59-0.1-0.67,0.11c-0.02,0.04-0.03,0.09-0.05,0.13c-0.03-0.17-0.36-0.08-0.37,0.1c-0.02,0.37-0.04,0.73-0.05,1.1
				C204.15-300.08,203.01-295.58,204.57-290.99z M205.56-302.2c-0.02,0.51-0.05,1.01-0.08,1.52c-0.22,0.58-0.52,1.14-0.77,1.71
				C204.93-300.05,205.22-301.13,205.56-302.2z M209.28-298.8c-0.68-1.72-2.56-3.12-3.23-4.85c0.12-0.34,0.24-0.68,0.36-1.02
				c0.77,2.02,2.6,3.63,2.87,5.79C209.28-298.85,209.28-298.83,209.28-298.8z M208.8-296.21c-0.32-2.34-2.46-4.18-2.84-6.54
				c0.01-0.25,0.02-0.5,0.04-0.74c0,0,0,0,0-0.01c0.63,2.08,2.83,3.38,3.3,5.47C209.25-297.39,209.06-296.79,208.8-296.21z
				 M207.85-294.64c0.04-1.85-1.47-3.51-2.03-5.28c0.04-0.78,0.08-1.56,0.12-2.33c0.44,2.18,2.39,4.01,2.75,6.27
				C208.44-295.52,208.16-295.08,207.85-294.64z M205.59-294.77c0.23,0.78,0.48,1.56,0.54,2.35c-0.23,0.31-0.45,0.62-0.65,0.94
				C205.51-292.57,205.55-293.67,205.59-294.77z M205.81-299.74c0.51,1.82,2,3.43,1.89,5.31c-0.46,0.62-0.96,1.23-1.43,1.85
				c-0.07-0.89-0.33-1.79-0.65-2.63C205.67-296.73,205.73-298.24,205.81-299.74z M204.26-295.35c0.46-0.79,0.81-1.64,1.08-2.51
				c-0.03,0.66-0.06,1.33-0.1,1.99c-0.24,1.08-0.73,2.11-0.87,3.21C204.26-293.56,204.23-294.46,204.26-295.35z M204.29-295.81
				c0.04-0.77,0.14-1.53,0.26-2.28c0.22-0.75,0.62-1.44,0.91-2.16c-0.03,0.59-0.06,1.17-0.09,1.76
				C205.07-297.58,204.71-296.69,204.29-295.81z"/>
		</g>
	</g>
</g>
<path class="st3" d="M164.08-269.69c-2.86-7.91-1.29-16.23-2.27-24.4c-0.97-8.06-5.57-13.77-10.92-19.53
	c-0.36-0.38-0.96,0.22-0.95,0.6c0,0.31,0.02,0.62,0.02,0.94c-2.76,8.23-4.05,16.64-1.12,25.02c2.23,6.37,6.48,11.72,11.71,15.86
	c0.57,0.69,1.18,1.33,1.84,1.93c0.19,0.17,0.43,0.04,0.56-0.15c0.14,0.1,0.28,0.2,0.43,0.3
	C163.7-268.91,164.22-269.31,164.08-269.69z M161.44-276.59c-1.56-3.15-4.05-5.72-5.81-8.72c-0.35-1.13-0.69-2.26-1.01-3.4
	c1.91,3.51,4.88,6.36,6.61,9.96C161.28-278.03,161.35-277.31,161.44-276.59z M161.18-279.47c-1.78-3.46-4.79-6.23-6.68-9.67
	c-0.12-0.44-0.24-0.87-0.36-1.31c-0.49-1.9-0.9-3.81-1.27-5.73c2.06,4.03,6.25,6.75,8.17,10.95
	C161.05-283.31,161.07-281.38,161.18-279.47z M161.03-285.88c-1.95-4.2-6-7.08-8.32-11.13c-0.01-0.04-0.02-0.08-0.02-0.12
	c2.25,3.85,6.49,6.37,8.34,10.53C161.03-286.36,161.03-286.12,161.03-285.88z M160.78-292.29c0.08,0.71,0.14,1.43,0.17,2.17
	c0.04,0.94,0.06,1.88,0.07,2.82c-1.93-4.04-6.19-6.56-8.45-10.46c-0.28-1.62-0.52-3.25-0.73-4.88c0.87,1.41,2.27,2.5,3.53,3.59
	C157.61-297.09,159.82-295.08,160.78-292.29z M160.66-293.18c-0.51-1.2-1.26-2.27-2.19-3.29c-1.94-2.12-5.2-3.91-6.67-6.51
	c-0.14-1.12-0.26-2.23-0.36-3.35c1.89,2.88,5.6,4.27,7.67,7.1C159.83-297.34,160.36-295.34,160.66-293.18z M157.71-302.39
	c0.38,0.73,0.72,1.48,1.04,2.24c-2.07-2.48-5.42-3.92-7.34-6.61c-0.01-0.15-0.03-0.29-0.04-0.44
	C152.9-305.13,155.76-304.18,157.71-302.39z M157.29-303.19c-1.86-1.6-4.32-2.62-5.96-4.53c-0.1-1.28-0.18-2.55-0.23-3.83
	C153.57-308.81,155.66-306.1,157.29-303.19z M149.98-311.1c0.05,1.64,0.14,3.29,0.27,4.92c-0.46,1.52-1.13,2.98-1.59,4.49
	C148.91-304.78,149.42-307.89,149.98-311.1z M148.53-299.64c0.28-1.98,1.23-3.8,1.77-5.72c0.02,0.2,0.04,0.4,0.06,0.6
	c-0.65,1.9-1.25,3.82-1.85,5.74C148.53-299.23,148.53-299.44,148.53-299.64z M148.51-298.36c0.69-1.98,1.35-3.99,1.9-6.01
	c0.21,2.22,0.48,4.42,0.84,6.62c-0.88,1.61-1.87,3.39-2.32,5.2C148.61-294.5,148.5-296.43,148.51-298.36z M149.06-291.77
	c0.3-2,1.33-3.92,2.22-5.8c0.03,0.16,0.06,0.31,0.08,0.47c-0.88,1.9-1.87,4.03-2.14,6.15C149.17-291.22,149.11-291.5,149.06-291.77z
	 M150.11-287.67c-0.25-0.75-0.46-1.5-0.65-2.25c0.02-2.39,1.08-4.69,1.93-6.98c0.27,1.55,0.57,3.09,0.92,4.63
	c-0.05,2.89-0.66,5.77-0.57,8.64C151.13-284.94,150.57-286.29,150.11-287.67z M152-283.11c-0.08-2.76,0.49-5.52,0.52-8.27
	c0.22,0.94,0.45,1.87,0.7,2.81c0.12,0.46,0.25,0.93,0.38,1.39c-0.15,2.04-0.62,4.1-0.52,6.12C152.7-281.73,152.34-282.42,152-283.11
	z M153.46-280.4c-0.14-1.99,0.2-3.96,0.32-5.94c0.08,2.02-0.36,4.06-0.24,6.05C153.51-280.32,153.49-280.36,153.46-280.4z
	 M153.83-279.83c-0.19-2.02,0.22-4.05,0.13-6.08c1.14,4.09,2.5,8.39,4.71,12.03C156.81-275.65,155.2-277.66,153.83-279.83z
	 M161.69-271.36c-1.88-2.44-3.04-5.57-4.12-8.35c-0.56-1.45-1.08-2.91-1.56-4.38c1.74,2.77,4.08,5.26,5.52,8.22
	c0.25,1.77,0.63,3.53,1.23,5.26C162.4-270.85,162.04-271.1,161.69-271.36z"/>
<g class="st4">
	<path class="st5" d="M55.57,73.78c-0.17-0.34-0.12-0.53,0.07-0.8c1.51-2.15,3-4.32,4.49-6.48c1.13-1.64,1.95-3.43,2.25-5.41
		c0.87-5.77-1.12-10.37-5.85-13.77c-2.1-1.51-4.25-2.96-6.38-4.42c-0.26-0.18-0.37-0.32-0.33-0.68c0.16-1.23-0.27-2.25-1.29-2.97
		c-1.02-0.71-2.12-0.75-3.24-0.21c-0.22,0.11-0.38,0.25-0.65,0.05c-0.5-0.38-1.04-0.71-1.55-1.09c-0.53-0.39-0.63-0.94-0.27-1.5
		c0.33-0.51,0.71-1,1.03-1.51c0.16-0.24,0.32-0.28,0.6-0.24c1.23,0.16,2.26-0.26,2.97-1.27c0.73-1.03,0.79-2.16,0.19-3.28
		c-0.15-0.28-0.13-0.46,0.04-0.7c2.34-3.36,4.67-6.73,7.01-10.09c-5.16-3.58-10.32-7.15-15.48-10.73c-2.32,3.35-4.64,6.7-6.96,10.05
		c-0.17,0.25-0.32,0.38-0.68,0.33c-1.23-0.16-2.25,0.27-2.97,1.29c-0.71,1.02-0.77,2.13-0.2,3.23c0.17,0.33,0.13,0.53-0.06,0.8
		c-1.51,2.15-3,4.32-4.5,6.48c-1.1,1.59-1.92,3.32-2.22,5.23c-0.94,5.8,1,10.47,5.76,13.92c2.08,1.5,4.21,2.94,6.33,4.39
		c0.33,0.22,0.48,0.42,0.43,0.87c-0.25,2.21,1.89,4.02,3.94,3.24c0.9-0.34,1.46-0.18,2.08,0.36c0.21,0.19,0.47,0.32,0.7,0.49
		c0.53,0.4,0.63,0.94,0.28,1.5c-0.3,0.46-0.64,0.9-0.93,1.36c-0.2,0.33-0.4,0.45-0.82,0.4c-1.21-0.15-2.2,0.32-2.89,1.32
		c-0.67,0.98-0.77,2.06-0.21,3.11c0.21,0.4,0.14,0.64-0.09,0.97c-2.2,3.16-4.39,6.33-6.59,9.49c-0.26,0.36-0.25,0.52,0.13,0.79
		c4.87,3.35,9.73,6.72,14.57,10.1c0.38,0.26,0.53,0.22,0.78-0.15c2.19-3.19,4.4-6.37,6.6-9.56c0.18-0.26,0.31-0.43,0.71-0.38
		c1.23,0.17,2.25-0.27,2.97-1.29C56.08,76,56.13,74.88,55.57,73.78z M40.19,11.88c3.71,2.59,7.43,5.17,11.16,7.73
		c0.33,0.23,0.36,0.38,0.13,0.71c-1.8,2.57-3.59,5.15-5.36,7.74c-0.23,0.34-0.39,0.34-0.71,0.12c-1.85-1.3-3.71-2.58-5.57-3.87
		c-1.86-1.29-3.71-2.59-5.58-3.86c-0.33-0.23-0.36-0.38-0.13-0.71c1.8-2.57,3.59-5.15,5.36-7.74
		C39.71,11.66,39.87,11.65,40.19,11.88z M30.25,21.77c0.23-0.57,0.86-0.8,1.4-0.5c0.18,0.1,0.34,0.22,0.51,0.33
		c4.3,2.98,8.61,5.96,12.91,8.94c0.84,0.58,1.05,1.11,0.67,1.68s-0.97,0.57-1.8-0.01c-2.18-1.51-4.35-3.02-6.53-4.52
		c-2.21-1.53-4.42-3.06-6.63-4.59C30.29,22.77,30.01,22.38,30.25,21.77z M34.82,52.6c-2.32-1.66-4.72-3.2-7-4.93
		c-3.43-2.59-5.09-7.4-4.04-11.6c0.37-1.5,1.03-2.86,1.89-4.13c1.41-2.05,2.84-4.08,4.24-6.14c0.26-0.38,0.42-0.41,0.8-0.15
		c3.67,2.57,7.36,5.12,11.06,7.66c0.37,0.25,0.44,0.41,0.16,0.8c-0.48,0.65-1.01,1.28-1.26,2.08c-0.39,1.26-0.03,2.51,0.99,3.34
		c0.48,0.38,0.97,0.75,1.49,1.07c0.35,0.22,0.35,0.39,0.12,0.71c-1.32,1.87-2.61,3.75-3.91,5.62c-1.28,1.84-2.56,3.68-3.82,5.53
		C35.31,52.79,35.15,52.84,34.82,52.6z M36.86,56.46c-0.58-0.24-0.8-0.85-0.51-1.39c0.1-0.18,0.22-0.35,0.33-0.51
		c2.98-4.3,5.96-8.61,8.94-12.91c0.58-0.84,1.11-1.05,1.68-0.67c0.56,0.38,0.56,0.98,0,1.8c-1.51,2.18-3.02,4.35-4.52,6.53
		c-1.53,2.21-3.06,4.42-4.59,6.63C37.86,56.42,37.47,56.71,36.86,56.46z M42.31,57.83c-0.47-0.38-0.97-0.74-1.48-1.07
		c-0.3-0.19-0.37-0.33-0.14-0.66c2.61-3.74,5.21-7.5,7.8-11.26c0.2-0.3,0.35-0.3,0.62-0.1c2.44,1.74,5.02,3.28,7.33,5.2
		c2.83,2.35,4.13,5.47,4.05,9.14c-0.05,2.34-0.86,4.44-2.19,6.36c-1.42,2.04-2.84,4.08-4.24,6.14c-0.27,0.39-0.44,0.39-0.8,0.13
		c-1.83-1.3-3.68-2.56-5.52-3.84c-1.86-1.29-3.71-2.59-5.58-3.86c-0.34-0.23-0.35-0.39-0.13-0.71c0.47-0.66,1.01-1.28,1.27-2.07
		C43.71,59.94,43.36,58.67,42.31,57.83z M44.49,85.37c-0.23,0.34-0.38,0.35-0.71,0.12c-3.71-2.59-7.43-5.17-11.16-7.73
		c-0.33-0.23-0.37-0.38-0.13-0.71c1.8-2.57,3.59-5.15,5.36-7.74c0.23-0.34,0.39-0.35,0.71-0.12c1.87,1.32,3.75,2.61,5.62,3.91
		c1.84,1.28,3.68,2.56,5.53,3.82c0.33,0.22,0.37,0.37,0.13,0.71C48.05,80.2,46.27,82.78,44.49,85.37z M51.79,75.75
		c-2.14-1.48-4.29-2.97-6.43-4.45c-2.23-1.54-4.45-3.08-6.68-4.63c-0.61-0.43-0.76-0.85-0.51-1.38c0.25-0.54,0.85-0.74,1.37-0.45
		c0.18,0.1,0.35,0.22,0.51,0.33c4.3,2.98,8.61,5.96,12.91,8.94c0.84,0.58,1.05,1.11,0.68,1.68C53.26,76.36,52.65,76.34,51.79,75.75z
		"/>
</g>
<g>
	<g>
		<path class="st6" d="M-277.24,438.98l-18.19-35.32c-0.36-0.7-1.13-1.09-1.91-0.96l-55.25,8.59c-1.23,0.19-1.91,1.51-1.36,2.61
			l17.77,35.14c0.35,0.7,1.12,1.09,1.91,0.98l23.55-3.55l-0.06-0.43l6.81-1.03l0.06,0.43l25.3-3.82
			C-277.36,441.41-276.67,440.08-277.24,438.98z M-280.7,440.16l-15.5,2.34l0.43,0.82l-1.22,0.64l-0.65-1.24l-17.3,2.61l0.51,0.97
			l-1.22,0.64l-0.74-1.4l-16.76,2.53c-0.77,0.12-1.53-0.27-1.89-0.97l-5.45-10.68l-1.08,0.16l-0.21-1.36l0.62-0.09l-5.58-10.93
			l-0.78,0.12l-0.21-1.36l0.33-0.05l-4.34-8.5c-0.36-0.7,0.07-1.55,0.86-1.67l15.88-2.46l-0.53-1.01l1.22-0.64l0.75,1.43l17.26-2.68
			l-0.58-1.09l1.22-0.64l0.8,1.51l16.37-2.54c0.78-0.12,1.54,0.27,1.89,0.97l4.56,8.98l0.9-0.14l0.21,1.36l-0.45,0.07l5.55,10.93
			l0.63-0.1l0.21,1.36l-0.18,0.03l5.3,10.44C-279.51,439.22-279.94,440.05-280.7,440.16z"/>
		
			<rect x="-309.89" y="445.87" transform="matrix(0.9888 -0.1492 0.1492 0.9888 -70.8109 -40.667)" class="st7" width="6.89" height="11.48"/>
		
			<rect x="-310.76" y="445.51" transform="matrix(0.9888 -0.1492 0.1492 0.9888 -69.9419 -40.8624)" class="st7" width="6.89" height="0.43"/>
		<path class="st6" d="M-308.93,458.26l-0.07-0.46l-8.46,1.28c-0.99,0.15-1.67,1.07-1.52,2.06s1.07,1.67,2.06,1.52l23.74-3.58
			c0.99-0.15,1.67-1.07,1.52-2.06s-1.07-1.67-2.06-1.52l-8.46,1.28l0.07,0.46L-308.93,458.26z"/>
		
			<rect x="-309" y="457.28" transform="matrix(0.9888 -0.1492 0.1492 0.9888 -71.6813 -40.4683)" class="st7" width="6.89" height="0.46"/>
		<polygon class="st6" points="-347.7,422.96 -347.5,424.33 -346.72,424.21 -347.38,422.92 		"/>
		<polygon class="st6" points="-290.91,415.79 -291.12,414.43 -292.02,414.56 -291.36,415.86 		"/>
		<polygon class="st6" points="-329.72,420.25 -347.38,422.92 -346.72,424.21 -329.04,421.54 		"/>
		<polygon class="st6" points="-308.85,418.5 -291.36,415.86 -292.02,414.56 -309.54,417.21 		"/>
		<polygon class="st6" points="-310.3,418.72 -310.98,417.42 -328.28,420.03 -327.6,421.33 		"/>
		<polygon class="st6" points="-341.76,435.23 -341.56,436.6 -340.48,436.43 -341.14,435.14 		"/>
		<polygon class="st6" points="-284.97,428.06 -285.18,426.69 -285.81,426.79 -285.15,428.09 		"/>
		<polygon class="st6" points="-323.3,432.45 -341.14,435.14 -340.48,436.43 -322.61,433.74 		"/>
		<polygon class="st6" points="-302.43,430.69 -285.15,428.09 -285.81,426.79 -303.11,429.4 		"/>
		<polygon class="st6" points="-321.85,432.23 -321.17,433.52 -303.87,430.91 -304.55,429.62 		"/>
		<polygon class="st6" points="-315.63,405.64 -316.85,406.28 -316.28,407.38 -314.84,407.15 		"/>
		<polygon class="st6" points="-296.99,443.96 -295.77,443.32 -296.2,442.5 -297.65,442.72 		"/>
		<polygon class="st6" points="-303.87,430.91 -297.65,442.72 -296.2,442.5 -302.43,430.69 		"/>
		<polygon class="st6" points="-309.54,417.21 -314.84,407.15 -316.28,407.38 -310.98,417.42 		"/>
		<polygon class="st6" points="-304.55,429.62 -303.11,429.4 -308.85,418.5 -310.3,418.72 		"/>
		<polygon class="st6" points="-308.85,418.5 -309.54,417.21 -310.98,417.42 -310.3,418.72 		"/>
		<polygon class="st6" points="-304.55,429.62 -303.87,430.91 -302.43,430.69 -303.11,429.4 		"/>
		<polygon class="st6" points="-315.65,446.95 -314.43,446.3 -314.94,445.33 -316.39,445.55 		"/>
		<polygon class="st6" points="-334.29,408.62 -335.51,409.27 -334.98,410.28 -333.54,410.05 		"/>
		<polygon class="st6" points="-322.61,433.74 -316.39,445.55 -314.94,445.33 -321.17,433.52 		"/>
		<polygon class="st6" points="-328.28,420.03 -333.54,410.05 -334.98,410.28 -329.72,420.25 		"/>
		<polygon class="st6" points="-327.6,421.33 -329.04,421.54 -323.3,432.45 -321.85,432.23 		"/>
		<polygon class="st6" points="-328.28,420.03 -329.72,420.25 -329.04,421.54 -327.6,421.33 		"/>
		<polygon class="st6" points="-323.3,432.45 -322.61,433.74 -321.17,433.52 -321.85,432.23 		"/>
	</g>
	<g>
		<line class="st6" x1="-344.59" y1="417.42" x2="-339.43" y2="419.38"/>
		<line class="st6" x1="-345.87" y1="415.04" x2="-336.49" y2="418.59"/>
		<line class="st6" x1="-342.64" y1="414.18" x2="-337.48" y2="416.13"/>
	</g>
	<g>
		<line class="st6" x1="-338.39" y1="428.96" x2="-333.24" y2="430.91"/>
		<line class="st6" x1="-339.67" y1="426.57" x2="-330.29" y2="430.12"/>
		<line class="st6" x1="-336.44" y1="425.71" x2="-331.29" y2="427.66"/>
	</g>
	<g>
		<line class="st6" x1="-332.07" y1="441" x2="-326.92" y2="442.95"/>
		<line class="st6" x1="-333.35" y1="438.61" x2="-323.97" y2="442.16"/>
		<line class="st6" x1="-330.12" y1="437.75" x2="-324.96" y2="439.7"/>
	</g>
	<g>
		<line class="st6" x1="-313.71" y1="438.4" x2="-308.55" y2="440.35"/>
		<line class="st6" x1="-314.99" y1="436.01" x2="-305.61" y2="439.57"/>
		<line class="st6" x1="-311.76" y1="435.15" x2="-306.6" y2="437.1"/>
	</g>
	<g>
		<line class="st6" x1="-295.42" y1="435.48" x2="-290.27" y2="437.43"/>
		<line class="st6" x1="-296.71" y1="433.09" x2="-287.33" y2="436.64"/>
		<line class="st6" x1="-293.47" y1="432.23" x2="-288.32" y2="434.18"/>
	</g>
	<g>
		<line class="st6" x1="-319.8" y1="426.16" x2="-314.64" y2="428.11"/>
		<line class="st6" x1="-321.08" y1="423.78" x2="-311.7" y2="427.33"/>
		<line class="st6" x1="-317.85" y1="422.92" x2="-312.69" y2="424.87"/>
	</g>
	<g>
		<line class="st6" x1="-301.05" y1="423.56" x2="-295.9" y2="425.52"/>
		<line class="st6" x1="-302.34" y1="421.18" x2="-292.96" y2="424.73"/>
		<line class="st6" x1="-299.1" y1="420.32" x2="-293.95" y2="422.27"/>
	</g>
	<g>
		<line class="st6" x1="-326.02" y1="414.18" x2="-320.87" y2="416.13"/>
		<line class="st6" x1="-327.31" y1="411.79" x2="-317.92" y2="415.34"/>
		<line class="st6" x1="-324.07" y1="410.93" x2="-318.92" y2="412.88"/>
	</g>
	<g>
		<line class="st6" x1="-307.28" y1="410.92" x2="-302.13" y2="412.88"/>
		<line class="st6" x1="-308.56" y1="408.54" x2="-299.18" y2="412.09"/>
		<line class="st6" x1="-305.33" y1="407.68" x2="-300.17" y2="409.63"/>
	</g>
</g>
</svg>
