<?xml version="1.0" encoding="utf-8"?>
<!-- Generator: Adobe Illustrator 24.0.2, SVG Export Plug-In . SVG Version: 6.00 Build 0)  -->
<svg version="1.1" id="Capa_1" xmlns="http://www.w3.org/2000/svg" xmlns:xlink="http://www.w3.org/1999/xlink" x="0px" y="0px"
	 viewBox="0 0 838.08 440.62" style="enable-background:new 0 0 838.08 440.62;" xml:space="preserve">
<style type="text/css">
	.st0{opacity:0.1;}
	.st1{fill:#5A7D2C;}
	.st2{fill:none;stroke:#5A7D2C;stroke-width:9;stroke-linecap:round;stroke-linejoin:round;stroke-miterlimit:10;}
	.st3{opacity:0.58;fill:#5A7D2C;}
	.st4{opacity:0.3;fill:#5A7D2C;}
	.st5{fill:none;stroke:#5A7D2C;stroke-width:5.1733;stroke-miterlimit:10;}
	.st6{fill:none;stroke:#5A7D2C;stroke-linecap:round;stroke-linejoin:round;stroke-miterlimit:10;}
	.st7{fill:#FFFFFF;}
	.st8{fill:none;stroke:#96C22B;stroke-width:9;stroke-linecap:round;stroke-linejoin:round;stroke-miterlimit:10;}
	.st9{fill:#352E35;}
	.st10{fill:#FEF7BF;}
	.st11{opacity:0.58;fill:#FEF7BF;}
	.st12{fill:#B2B2B2;}
	.st13{fill:#538830;}
	.st14{fill:#AFB4B6;}
	.st15{opacity:0.3;fill:#FFFFFF;}
	.st16{fill:#457228;}
	.st17{fill:none;stroke:#457228;stroke-width:5.1733;stroke-miterlimit:10;}
	.st18{fill:#79A72B;}
	.st19{fill:#96C22B;}
	.st20{fill:#DADADA;}
	.st21{fill:#E8E996;}
	.st22{fill:none;stroke:#E8E996;stroke-linecap:round;stroke-linejoin:round;stroke-miterlimit:10;}
</style>
<g>
	<g class="st0">
		<path class="st1" d="M100.95,420.04"/>
		<path class="st2" d="M128.3,365.4v17.72c0,6.62,5.37,11.99,11.99,11.99h539.08l37.49-52.95"/>
		<path class="st1" d="M161.69,330.32c0,18.44-14.95,33.39-33.39,33.39c-18.44,0-33.4-14.95-33.4-33.39H161.69z"/>
		<path class="st1" d="M137.86,360.62c0,5.28-4.28,9.56-9.56,9.56c-5.29,0-9.56-4.28-9.56-9.56H137.86z"/>
		<path class="st1" d="M172.01,332.88c-0.29,5.85-5.08,10.5-10.99,10.5H95.58c-5.92,0-10.7-4.66-10.99-10.5H172.01z"/>
		<rect x="81.71" y="283.99" class="st1" width="92.65" height="40.27"/>
		<path class="st1" d="M23.73,151.89c0-57.56,46.66-104.23,104.23-104.23c57.57,0,104.23,46.67,104.23,104.23
			c0,40.95-23.63,76.36-57.98,93.4v36.68H81.71v-36.68C47.36,228.25,23.73,192.84,23.73,151.89z"/>
		<path class="st3" d="M118.7,260.93c17.22-7.13,18.76-24.75,31.26-36.01c13.2-11.88,26.94-17.53,35.95-34
			c17.49-31.99,22.26-69.79,1.31-101.5C176.64,73.42,162.7,60,146.82,49.39c48.56,8.88,85.38,51.37,85.38,102.5
			c0,40.95-23.63,76.36-57.98,93.4v36.68H81.71v-17.38C93.19,267.18,105.74,266.3,118.7,260.93z"/>
		<path class="st1" d="M130.08,59.99c-1.8,20.35-23.24,44.91-35.31,55.69c-14.65,13.08-36.44,26.46-56.85,26.68
			c4.19-46.21,43.02-82.41,90.32-82.41C128.86,59.94,129.46,59.98,130.08,59.99z"/>
		<path class="st1" d="M76.86,279.55c0,4.46,3.62,8.08,8.08,8.08h87.26c4.46,0,8.08-3.62,8.08-8.08l0,0c0-4.46-3.62-8.08-8.08-8.08
			H84.94C80.48,271.47,76.86,275.09,76.86,279.55L76.86,279.55z"/>
		<path class="st1" d="M180.2,280.36c-0.41,4.08-3.81,7.27-8,7.27H84.94c-4.19,0-7.59-3.19-8-7.27H180.2z"/>
		<path class="st1" d="M81.71,274.23c0,0.68,1.11,1.24,2.47,1.24h90.27c1.36,0,2.47-0.56,2.47-1.24l0,0c0-0.68-1.1-1.23-2.47-1.23
			H84.18C82.82,272.99,81.71,273.55,81.71,274.23L81.71,274.23z"/>
		<path class="st1" d="M76.86,302.72c0,4.46,3.62,8.08,8.08,8.08h87.26c4.46,0,8.08-3.62,8.08-8.08l0,0c0-4.46-3.62-8.08-8.08-8.08
			H84.94C80.48,294.63,76.86,298.25,76.86,302.72L76.86,302.72z"/>
		<path class="st1" d="M180.2,303.52c-0.41,4.08-3.81,7.27-8,7.27H84.94c-4.19,0-7.59-3.19-8-7.27H180.2z"/>
		<path class="st1" d="M81.71,297.39c0,0.68,1.11,1.23,2.47,1.23h90.27c1.36,0,2.47-0.55,2.47-1.23l0,0c0-0.68-1.1-1.23-2.47-1.23
			H84.18C82.82,296.16,81.71,296.71,81.71,297.39L81.71,297.39z"/>
		<path class="st1" d="M76.86,325.88c0,4.46,3.62,8.08,8.08,8.08h87.26c4.46,0,8.08-3.62,8.08-8.08l0,0c0-4.46-3.62-8.08-8.08-8.08
			H84.94C80.48,317.8,76.86,321.41,76.86,325.88L76.86,325.88z"/>
		<path class="st1" d="M180.2,326.69c-0.41,4.08-3.81,7.27-8,7.27H84.94c-4.19,0-7.59-3.19-8-7.27H180.2z"/>
		<path class="st1" d="M81.71,320.56c0,0.68,1.11,1.24,2.47,1.24h90.27c1.36,0,2.47-0.56,2.47-1.24l0,0c0-0.68-1.1-1.24-2.47-1.24
			H84.18C82.82,319.32,81.71,319.87,81.71,320.56L81.71,320.56z"/>
		<path class="st1" d="M169.8,137.35c-3.73,21.2-35.55,34.64-35.55,34.64s-21.33-21.97-17.46-43.95
			c5.25-29.85,25.05-45.79,56.88-49.51C162.37,103.66,173.53,116.15,169.8,137.35z"/>
		<path class="st1" d="M162.12,139.64c-4.14,6.58-13.72,15.06-22.44,12.49c-2.52-0.74-5.14-1.56-5.72-4.48
			c-1.42-7.11-2.84-14.1-4.69-21.13c-1.76-6.65-3.9-13.88-3.22-20.82c0.07-0.76,0.18-1.5,0.28-2.25
			c-4.63,6.79-7.84,14.96-9.54,24.58c-3.87,21.99,17.46,43.95,17.46,43.95s31.82-13.43,35.55-34.64c1.01-5.73,0.93-10.82,0.5-15.71
			C168.05,127.86,165.67,134,162.12,139.64z"/>
		<path class="st4" d="M138.59,90.89c7.55,0.67,20.71-5.3,25.27-6.84c0.88-0.29,1.84,0.27,1.93,1.21
			c0.59,5.89-2.82,12.22-1.57,17.88c0.74,3.38,2.49,5.59,4.76,7.11c-1-9.17-1.14-18.76,4.68-31.72
			C159.52,80.18,147.76,84.25,138.59,90.89z"/>
		<path class="st1" d="M135.41,194.34c0,0-0.05-1.87-0.13-5.16c-0.05-1.64,0.05-3.54,0.08-5.77c0.02-2.21,0.26-4.77,0.41-7.53
			c0.24-2.76,0.52-5.76,0.91-8.93c0.44-3.16,0.85-6.5,1.48-9.93c0.54-3.44,1.31-6.96,2.05-10.55c0.36-1.8,0.85-3.58,1.28-5.38
			c0.44-1.8,0.86-3.62,1.4-5.4c0.51-1.79,1.01-3.59,1.52-5.37c0.57-1.77,1.14-3.53,1.7-5.27c0.28-0.87,0.57-1.74,0.85-2.61
			c0.31-0.85,0.63-1.7,0.94-2.54c0.63-1.69,1.25-3.35,1.85-4.99c0.68-1.61,1.35-3.19,2.01-4.74c0.33-0.78,0.65-1.54,0.98-2.3
			c0.33-0.75,0.7-1.48,1.05-2.2c0.7-1.44,1.38-2.85,2.04-4.21c0.64-1.37,1.41-2.61,2.07-3.84c0.68-1.23,1.33-2.4,1.95-3.52
			c0.69-1.08,1.34-2.1,1.95-3.06c1.23-1.92,2.28-3.61,3.31-4.89c1.97-2.62,3.1-4.12,3.1-4.12s-1.2,1.44-3.3,3.97
			c-1.1,1.23-2.23,2.87-3.56,4.74c-0.66,0.93-1.37,1.93-2.11,2.98c-0.68,1.09-1.39,2.24-2.14,3.44c-0.72,1.21-1.57,2.42-2.28,3.77
			c-0.73,1.34-1.49,2.72-2.26,4.14c-0.38,0.71-0.8,1.42-1.17,2.17c-0.36,0.75-0.73,1.5-1.1,2.27c-0.74,1.53-1.49,3.1-2.26,4.69
			c-0.7,1.62-1.4,3.28-2.12,4.95c-0.36,0.84-0.72,1.68-1.08,2.53c-0.33,0.86-0.66,1.72-0.99,2.59c-0.66,1.74-1.32,3.49-1.98,5.25
			c-0.6,1.78-1.2,3.57-1.81,5.36c-0.63,1.78-1.15,3.6-1.68,5.4c-0.52,1.81-1.1,3.59-1.56,5.39c-0.93,3.6-1.89,7.14-2.61,10.61
			c-0.82,3.45-1.41,6.83-2.01,10.04c-0.56,3.21-0.99,6.26-1.38,9.09c-0.29,2.84-0.67,5.41-0.81,7.77c-0.15,2.33-0.35,4.42-0.38,6.06
			c-0.08,3.28-0.12,5.16-0.12,5.16L135.41,194.34z"/>
		<path class="st1" d="M71.02,181.64c14.11,16.23,48.27,11.35,48.27,11.35s6.95-29.79-7.68-46.62
			c-19.86-22.84-45.03-26.3-74.19-13.09C60.04,148.97,56.91,165.4,71.02,181.64z"/>
		<path class="st1" d="M78.78,179.64c6.93,3.5,19.5,5.83,25.65-0.86c1.77-1.93,3.59-3.98,2.59-6.78
			c-2.44-6.82-4.83-13.53-6.86-20.51c-1.93-6.6-3.82-13.89-7.97-19.48c-0.45-0.61-0.92-1.2-1.4-1.78
			c7.46,3.43,14.42,8.76,20.82,16.13c14.63,16.84,7.68,46.62,7.68,46.62s-34.16,4.89-48.27-11.35c-3.81-4.39-6.36-8.79-8.51-13.19
			C67.63,172.61,72.84,176.64,78.78,179.64z"/>
		<path class="st4" d="M73.81,125.79c-6.11,4.46-20.46,6.13-25.16,7.16c-0.9,0.2-1.43,1.17-1.03,2.03c2.53,5.35,8.7,9.01,10.55,14.5
			c1.1,3.27,0.74,6.06-0.42,8.53c-3.87-8.36-8.68-16.65-20.34-24.74C50.38,127.4,62.55,124.83,73.81,125.79z"/>
		<path class="st1" d="M134.39,209.97c0,0-1-1.59-2.74-4.36c-0.86-1.39-2.09-3.06-3.4-4.98c-1.31-1.94-2.95-3.95-4.65-6.23
			c-1.77-2.22-3.7-4.61-5.81-7.08c-2.15-2.44-4.38-5.03-6.84-7.57c-2.39-2.61-5.01-5.16-7.65-7.77c-1.31-1.31-2.72-2.54-4.09-3.83
			c-1.38-1.27-2.75-2.56-4.2-3.77c-1.43-1.23-2.86-2.45-4.28-3.67c-1.47-1.17-2.93-2.33-4.38-3.49c-0.72-0.58-1.45-1.15-2.17-1.72
			c-0.74-0.54-1.48-1.08-2.21-1.62c-1.47-1.07-2.92-2.12-4.34-3.16c-1.47-0.97-2.92-1.93-4.33-2.87c-0.71-0.47-1.41-0.93-2.1-1.39
			c-0.7-0.45-1.42-0.85-2.11-1.26c-1.39-0.82-2.74-1.62-4.05-2.39c-1.3-0.79-2.64-1.4-3.88-2.07c-1.25-0.65-2.45-1.27-3.59-1.86
			c-1.17-0.52-2.29-1.01-3.33-1.48c-2.09-0.92-3.91-1.75-5.48-2.24c-3.09-1.1-4.86-1.72-4.86-1.72s1.74,0.7,4.78,1.91
			c1.54,0.55,3.32,1.45,5.37,2.45c1.02,0.5,2.11,1.04,3.26,1.6c1.11,0.63,2.28,1.3,3.5,1.99c1.21,0.71,2.51,1.37,3.77,2.21
			c1.27,0.82,2.58,1.67,3.93,2.54c0.67,0.44,1.36,0.86,2.04,1.34c0.67,0.48,1.34,0.97,2.03,1.46c1.36,0.98,2.76,1.99,4.18,3.01
			c1.37,1.08,2.77,2.19,4.18,3.3c0.7,0.56,1.41,1.12,2.13,1.69c0.69,0.59,1.38,1.19,2.08,1.79c1.39,1.2,2.79,2.41,4.19,3.62
			c1.36,1.26,2.73,2.53,4.09,3.8c1.38,1.25,2.69,2.58,4,3.89c1.3,1.32,2.64,2.59,3.89,3.94c2.5,2.68,4.98,5.29,7.24,7.96
			c2.33,2.6,4.42,5.24,6.43,7.72c1.98,2.51,3.78,4.93,5.42,7.16c1.56,2.29,3.1,4.35,4.27,6.24c1.19,1.9,2.27,3.48,3.08,4.91
			c1.63,2.84,2.56,4.47,2.56,4.47L134.39,209.97z"/>
		<path class="st1" d="M181.79,187.27c-9.93,16.38-40.66,17.26-40.66,17.26s-10.61-25.09-0.31-42.09
			c13.98-23.06,35.55-29.91,63.14-22.72C186.48,156.93,191.72,170.89,181.79,187.27z"/>
		<path class="st1" d="M174.67,186.7c-5.56,4.12-16.24,8.07-22.64,3.12c-1.85-1.43-3.76-2.95-3.3-5.55
			c1.11-6.36,2.19-12.62,2.92-19.04c0.7-6.08,1.25-12.77,4.05-18.31c0.31-0.61,0.63-1.19,0.96-1.78
			c-6.04,4.14-11.33,9.88-15.84,17.31c-10.3,16.99,0.31,42.09,0.31,42.09s30.73-0.88,40.66-17.26c2.68-4.43,4.26-8.68,5.47-12.87
			C183.39,178.83,179.44,183.16,174.67,186.7z"/>
		<path class="st4" d="M170.88,138.66c6.04,2.99,18.89,2.28,23.17,2.47c0.82,0.04,1.43,0.81,1.2,1.63
			c-1.41,5.08-6.27,9.22-7.07,14.33c-0.47,3.04,0.26,5.43,1.66,7.43c2.13-7.92,5.1-15.93,14.11-24.8
			C191.7,136.53,180.62,136.12,170.88,138.66z"/>
		<path class="st1" d="M134.42,223.27c0,0,0.57-1.57,1.57-4.31c0.5-1.38,1.2-2.92,1.96-4.77c0.74-1.84,1.78-3.88,2.81-6.12
			c1.11-2.21,2.32-4.61,3.68-7.11c1.39-2.48,2.83-5.12,4.48-7.75c1.57-2.68,3.36-5.35,5.15-8.08c0.89-1.37,1.88-2.69,2.82-4.05
			c0.95-1.35,1.9-2.72,2.92-4.02c1.01-1.32,2.01-2.64,3.01-3.96c1.05-1.28,2.09-2.55,3.13-3.81c0.52-0.63,1.04-1.26,1.55-1.88
			c0.54-0.6,1.08-1.2,1.61-1.8c1.07-1.19,2.13-2.37,3.17-3.53c1.09-1.11,2.16-2.21,3.21-3.28c1.04-1.08,2.08-2.12,3.15-3.07
			c1.05-0.97,2.07-1.91,3.06-2.82c0.98-0.93,2.02-1.7,2.97-2.51c0.97-0.79,1.89-1.55,2.77-2.28c0.92-0.67,1.8-1.3,2.62-1.9
			c1.65-1.19,3.07-2.25,4.34-2.97c2.49-1.53,3.91-2.4,3.91-2.4s-1.46,0.82-4,2.25c-1.3,0.67-2.77,1.67-4.47,2.8
			c-0.85,0.56-1.75,1.17-2.7,1.8c-0.91,0.69-1.87,1.42-2.87,2.17c-0.99,0.77-2.08,1.51-3.09,2.4c-1.03,0.88-2.1,1.78-3.19,2.72
			c-1.12,0.91-2.2,1.92-3.29,2.96c-1.1,1.04-2.23,2.1-3.37,3.17c-1.09,1.13-2.21,2.27-3.33,3.43c-0.56,0.58-1.13,1.17-1.7,1.75
			c-0.55,0.61-1.09,1.22-1.64,1.84c-1.1,1.23-2.2,2.48-3.31,3.73c-1.06,1.29-2.13,2.58-3.2,3.87c-1.09,1.28-2.1,2.62-3.11,3.95
			c-1.01,1.33-2.06,2.63-3.01,3.98c-1.92,2.69-3.84,5.32-5.54,7.97c-1.78,2.6-3.34,5.22-4.86,7.68c-1.48,2.48-2.81,4.88-4.03,7.09
			c-1.15,2.26-2.27,4.27-3.13,6.17c-0.86,1.88-1.69,3.54-2.23,4.89c-1.11,2.7-1.74,4.24-1.74,4.24L134.42,223.27z"/>
		<line class="st5" x1="132.34" y1="271.29" x2="132.34" y2="192.38"/>
		<polygon class="st1" points="729.66,349.47 725.2,346.94 707.36,336.81 703.68,334.74 709.68,324.14 734.72,338.35 735.65,338.89 
					"/>
		<path class="st1" d="M757.91,331.62c-4.69,8.27-15.12,11.3-23.18,6.72l-25.04-14.21l-1.47-0.83c-8.04-4.57-10.81-15.08-6.1-23.35
			l13.7-24.17l55.81,31.67L757.91,331.62z"/>
		<path class="st1" d="M774.37,308.49c-0.81-0.13-1.62-0.4-2.38-0.83l-0.36-0.2l-55.81-31.67l-2.99-1.7
			c-3.37-1.92-4.58-6.25-2.66-9.62c1.49-2.63,4.44-3.93,7.26-3.49c0.81,0.13,1.62,0.4,2.36,0.83l6.61,3.76l16.1,9.15l13.36,7.57
			l16.1,9.15l6.97,3.97c3.38,1.9,4.58,6.25,2.66,9.62C780.14,307.64,777.19,308.94,774.37,308.49z"/>
		<path class="st1" d="M771.98,291.44l-16.1-9.15l21.92-38.59c2.51-4.46,8.18-6.02,12.62-3.49c3.45,1.96,5.17,5.8,4.58,9.51
			c-0.17,1.07-0.52,2.12-1.1,3.13L771.98,291.44z M777.5,266.74c1.3,0.72,2.95,0.28,3.67-1.02l8.48-14.9
			c0.17-0.28,0.26-0.6,0.31-0.91c0.17-1.07-0.32-2.21-1.33-2.78c-1.3-0.72-2.95-0.28-3.67,1.02l-8.48,14.92
			C775.76,264.35,776.2,266,777.5,266.74z"/>
		<path class="st1" d="M742.51,274.72l-16.1-9.15l21.92-38.61c2.51-4.44,8.17-6,12.62-3.49c3.45,1.96,5.17,5.8,4.58,9.51
			c-0.17,1.07-0.52,2.14-1.1,3.13L742.51,274.72z M748.03,250.03c1.3,0.72,2.95,0.26,3.67-1.02l8.48-14.92
			c0.17-0.28,0.26-0.58,0.31-0.89c0.17-1.09-0.31-2.23-1.33-2.78c-1.3-0.72-2.95-0.28-3.67,1.02l-8.48,14.9
			C746.29,247.63,746.73,249.28,748.03,250.03z"/>
		<path class="st1" d="M710.3,319.82c-4.89-5.51-5.36-13.67-0.93-19.62c0.79-1.06-0.8-2.36-1.59-1.3
			c-4.94,6.63-4.66,15.92,0.86,22.12C709.51,322.01,711.18,320.81,710.3,319.82z"/>
		<path class="st1" d="M712.66,293.87c1.85-3.54,3.71-7.08,5.56-10.61c0.61-1.17-1.26-2.01-1.87-0.85
			c-1.85,3.54-3.71,7.08-5.56,10.61C710.17,294.19,712.04,295.03,712.66,293.87z"/>
		<line class="st6" x1="692.63" y1="376.38" x2="698.11" y2="368.64"/>
		<path class="st6" d="M661.25,395.11h12.43c3.57,0,6.91-1.73,8.97-4.64l5.4-7.63"/>
		<line class="st6" x1="433.04" y1="395.11" x2="448.56" y2="395.11"/>
		<line class="st6" x1="399" y1="395.11" x2="422.58" y2="395.11"/>
		<line class="st6" x1="149" y1="395.11" x2="158.53" y2="395.11"/>
		<line class="st6" x1="165.56" y1="395.11" x2="171.26" y2="395.11"/>
		<path class="st6" d="M128.3,382.44c0,7,5.67,12.67,12.67,12.67"/>
	</g>
	<g>
		<g>
			<path class="st7" d="M99.53,418.62"/>
			<path class="st8" d="M126.88,363.98v17.72c0,6.62,5.37,11.99,11.99,11.99h539.08l37.49-52.95"/>
			<g>
				<g>
					<g>
						<path class="st9" d="M160.28,328.9c0,18.44-14.95,33.39-33.39,33.39c-18.44,0-33.4-14.95-33.4-33.39H160.28z"/>
						<path class="st9" d="M136.44,359.2c0,5.28-4.28,9.56-9.56,9.56c-5.29,0-9.56-4.28-9.56-9.56H136.44z"/>
						<path class="st9" d="M170.6,331.46c-0.29,5.85-5.08,10.5-10.99,10.5H94.16c-5.92,0-10.7-4.66-10.99-10.5H170.6z"/>
						<rect x="80.29" y="282.58" class="st9" width="92.65" height="40.27"/>
						<path class="st10" d="M22.32,150.47c0-57.56,46.66-104.23,104.23-104.23c57.57,0,104.24,46.67,104.24,104.23
							c0,40.95-23.63,76.36-57.98,93.4v36.68H80.29v-36.68C45.94,226.83,22.32,191.42,22.32,150.47z"/>
						<path class="st11" d="M117.28,259.52c17.22-7.13,18.76-24.75,31.26-36.01c13.2-11.88,26.94-17.53,35.95-34
							c17.49-31.99,22.26-69.79,1.31-101.5C175.22,72,161.29,58.59,145.41,47.98c48.56,8.88,85.38,51.37,85.38,102.5
							c0,40.95-23.63,76.36-57.98,93.4v36.68H80.29v-17.38C91.78,265.77,104.32,264.88,117.28,259.52z"/>
						<path class="st7" d="M128.66,58.58c-1.8,20.35-23.24,44.91-35.31,55.69c-14.65,13.08-36.44,26.46-56.85,26.68
							c4.19-46.21,43.02-82.41,90.32-82.41C127.44,58.52,128.05,58.56,128.66,58.58z"/>
						<g>
							<path class="st9" d="M75.44,278.13c0,4.46,3.62,8.08,8.08,8.08h87.26c4.46,0,8.08-3.62,8.08-8.08l0,0
								c0-4.46-3.62-8.08-8.08-8.08H83.52C79.06,270.05,75.44,273.67,75.44,278.13L75.44,278.13z"/>
							<path class="st12" d="M178.79,278.94c-0.41,4.08-3.81,7.27-8,7.27H83.52c-4.19,0-7.59-3.19-8-7.27H178.79z"/>
							<path class="st7" d="M80.29,272.81c0,0.68,1.11,1.24,2.47,1.24h90.27c1.36,0,2.47-0.56,2.47-1.24l0,0
								c0-0.68-1.1-1.23-2.47-1.23H82.76C81.4,271.58,80.29,272.13,80.29,272.81L80.29,272.81z"/>
						</g>
						<g>
							<path class="st9" d="M75.44,301.3c0,4.46,3.62,8.08,8.08,8.08h87.26c4.46,0,8.08-3.62,8.08-8.08l0,0
								c0-4.46-3.62-8.08-8.08-8.08H83.52C79.06,293.22,75.44,296.83,75.44,301.3L75.44,301.3z"/>
							<path class="st12" d="M178.79,302.11c-0.41,4.08-3.81,7.27-8,7.27H83.52c-4.19,0-7.59-3.19-8-7.27H178.79z"/>
							<path class="st7" d="M80.29,295.98c0,0.68,1.11,1.23,2.47,1.23h90.27c1.36,0,2.47-0.55,2.47-1.23l0,0
								c0-0.68-1.1-1.23-2.47-1.23H82.76C81.4,294.74,80.29,295.29,80.29,295.98L80.29,295.98z"/>
						</g>
						<g>
							<path class="st9" d="M75.44,324.46c0,4.46,3.62,8.08,8.08,8.08h87.26c4.46,0,8.08-3.62,8.08-8.08l0,0
								c0-4.46-3.62-8.08-8.08-8.08H83.52C79.06,316.38,75.44,320,75.44,324.46L75.44,324.46z"/>
							<path class="st12" d="M178.79,325.27c-0.41,4.08-3.81,7.27-8,7.27H83.52c-4.19,0-7.59-3.19-8-7.27H178.79z"/>
							<path class="st7" d="M80.29,319.14c0,0.68,1.11,1.24,2.47,1.24h90.27c1.36,0,2.47-0.56,2.47-1.24l0,0
								c0-0.68-1.1-1.24-2.47-1.24H82.76C81.4,317.9,80.29,318.46,80.29,319.14L80.29,319.14z"/>
						</g>
					</g>
					<g>
						<g>
							<path class="st13" d="M168.38,135.93c-3.73,21.2-35.55,34.64-35.55,34.64s-21.33-21.97-17.46-43.95
								c5.25-29.85,25.05-45.79,56.88-49.51C160.95,102.24,172.11,114.73,168.38,135.93z"/>
							<path class="st14" d="M160.7,138.22c-4.14,6.58-13.72,15.06-22.44,12.49c-2.52-0.74-5.14-1.56-5.72-4.48
								c-1.42-7.11-2.84-14.1-4.69-21.13c-1.76-6.65-3.9-13.88-3.22-20.82c0.07-0.76,0.18-1.5,0.28-2.25
								c-4.63,6.79-7.84,14.96-9.54,24.58c-3.87,21.99,17.46,43.95,17.46,43.95s31.82-13.43,35.55-34.64
								c1.01-5.73,0.93-10.82,0.5-15.71C166.63,126.44,164.25,132.58,160.7,138.22z"/>
							<path class="st15" d="M137.18,89.47c7.55,0.67,20.71-5.3,25.27-6.84c0.88-0.29,1.84,0.27,1.93,1.21
								c0.59,5.89-2.82,12.22-1.57,17.88c0.74,3.38,2.49,5.59,4.76,7.11c-1-9.17-1.14-18.76,4.68-31.72
								C158.11,78.76,146.34,82.84,137.18,89.47z"/>
							<g>
								<g>
									<path class="st16" d="M133.99,192.92c0,0-0.05-1.87-0.13-5.16c-0.05-1.64,0.05-3.54,0.08-5.77
										c0.02-2.21,0.26-4.77,0.41-7.53c0.24-2.76,0.52-5.76,0.91-8.93c0.44-3.16,0.85-6.5,1.48-9.93
										c0.54-3.44,1.31-6.96,2.05-10.55c0.36-1.8,0.85-3.58,1.28-5.38c0.44-1.8,0.86-3.62,1.4-5.4c0.51-1.79,1.01-3.59,1.52-5.37
										c0.57-1.77,1.14-3.53,1.7-5.27c0.28-0.87,0.57-1.74,0.85-2.61c0.31-0.85,0.63-1.7,0.94-2.54c0.63-1.69,1.25-3.35,1.85-4.99
										c0.68-1.61,1.35-3.19,2.01-4.74c0.33-0.78,0.65-1.54,0.98-2.3c0.33-0.75,0.7-1.48,1.05-2.2c0.7-1.44,1.38-2.85,2.04-4.21
										c0.64-1.37,1.41-2.61,2.07-3.84c0.68-1.23,1.33-2.4,1.95-3.52c0.69-1.08,1.34-2.1,1.95-3.06c1.23-1.92,2.28-3.61,3.31-4.89
										c1.97-2.62,3.1-4.12,3.1-4.12s-1.2,1.44-3.3,3.97c-1.1,1.23-2.23,2.87-3.56,4.74c-0.66,0.93-1.37,1.93-2.11,2.98
										c-0.68,1.09-1.39,2.24-2.14,3.44c-0.72,1.21-1.57,2.42-2.28,3.77c-0.73,1.34-1.49,2.72-2.26,4.14
										c-0.38,0.71-0.8,1.42-1.17,2.17c-0.36,0.75-0.73,1.5-1.1,2.27c-0.74,1.53-1.49,3.1-2.26,4.69c-0.7,1.62-1.4,3.28-2.12,4.95
										c-0.36,0.84-0.72,1.68-1.08,2.53c-0.33,0.86-0.66,1.72-0.99,2.59c-0.66,1.74-1.32,3.49-1.98,5.25
										c-0.6,1.78-1.2,3.57-1.81,5.36c-0.63,1.78-1.15,3.6-1.68,5.4c-0.52,1.81-1.1,3.59-1.56,5.39
										c-0.93,3.6-1.89,7.14-2.61,10.61c-0.82,3.45-1.41,6.83-2.01,10.04c-0.56,3.21-0.99,6.26-1.38,9.09
										c-0.29,2.84-0.67,5.41-0.81,7.77c-0.15,2.33-0.35,4.42-0.38,6.06c-0.08,3.28-0.12,5.16-0.12,5.16L133.99,192.92z"/>
								</g>
							</g>
						</g>
						<g>
							<path class="st13" d="M69.61,180.22c14.11,16.23,48.27,11.35,48.27,11.35s6.95-29.79-7.68-46.62
								c-19.86-22.84-45.03-26.3-74.19-13.09C58.62,147.55,55.5,163.99,69.61,180.22z"/>
							<path class="st14" d="M77.36,178.23c6.93,3.5,19.5,5.83,25.65-0.86c1.77-1.93,3.59-3.98,2.59-6.78
								c-2.44-6.82-4.83-13.53-6.86-20.51c-1.93-6.6-3.82-13.89-7.97-19.48c-0.45-0.61-0.92-1.2-1.4-1.78
								c7.46,3.43,14.42,8.76,20.82,16.13c14.63,16.84,7.68,46.62,7.68,46.62s-34.16,4.89-48.27-11.35
								c-3.81-4.39-6.36-8.79-8.51-13.19C66.22,171.19,71.42,175.22,77.36,178.23z"/>
							<path class="st15" d="M72.4,124.37c-6.11,4.46-20.46,6.13-25.16,7.16c-0.9,0.2-1.43,1.17-1.03,2.03
								c2.53,5.35,8.7,9.01,10.55,14.5c1.1,3.27,0.74,6.06-0.42,8.53c-3.87-8.36-8.68-16.65-20.34-24.74
								C48.97,125.98,61.13,123.41,72.4,124.37z"/>
							<g>
								<g>
									<path class="st16" d="M132.98,208.55c0,0-1-1.59-2.74-4.36c-0.86-1.39-2.09-3.06-3.4-4.98c-1.31-1.94-2.95-3.95-4.65-6.23
										c-1.77-2.22-3.7-4.61-5.81-7.08c-2.15-2.44-4.38-5.03-6.84-7.57c-2.39-2.61-5.01-5.16-7.65-7.77
										c-1.31-1.31-2.72-2.54-4.09-3.83c-1.38-1.27-2.75-2.56-4.2-3.77c-1.43-1.23-2.86-2.45-4.28-3.67
										c-1.47-1.17-2.93-2.33-4.38-3.49c-0.72-0.58-1.45-1.15-2.17-1.72c-0.74-0.54-1.48-1.08-2.21-1.62
										c-1.47-1.07-2.92-2.12-4.34-3.16c-1.47-0.97-2.92-1.93-4.33-2.87c-0.71-0.47-1.41-0.93-2.1-1.39
										c-0.7-0.45-1.42-0.85-2.11-1.26c-1.39-0.82-2.74-1.62-4.05-2.39c-1.3-0.79-2.64-1.4-3.88-2.07
										c-1.25-0.65-2.45-1.27-3.59-1.86c-1.17-0.52-2.29-1.01-3.33-1.48c-2.09-0.92-3.91-1.75-5.48-2.24
										c-3.09-1.1-4.86-1.72-4.86-1.72s1.74,0.7,4.78,1.91c1.54,0.55,3.32,1.45,5.37,2.45c1.02,0.5,2.11,1.04,3.26,1.6
										c1.11,0.63,2.28,1.3,3.5,1.99c1.21,0.71,2.51,1.37,3.77,2.21c1.27,0.82,2.58,1.67,3.93,2.54c0.67,0.44,1.36,0.86,2.04,1.34
										c0.67,0.48,1.34,0.97,2.03,1.46c1.36,0.98,2.76,1.99,4.18,3.01c1.37,1.08,2.77,2.19,4.18,3.3c0.7,0.56,1.41,1.12,2.13,1.69
										c0.69,0.59,1.38,1.19,2.08,1.79c1.39,1.2,2.79,2.41,4.19,3.62c1.36,1.26,2.73,2.53,4.09,3.8c1.38,1.25,2.69,2.58,4,3.89
										c1.3,1.32,2.64,2.59,3.89,3.94c2.5,2.68,4.98,5.29,7.24,7.96c2.33,2.6,4.42,5.24,6.43,7.72c1.98,2.51,3.78,4.93,5.42,7.16
										c1.56,2.29,3.1,4.35,4.27,6.24c1.19,1.9,2.27,3.48,3.08,4.91c1.63,2.84,2.56,4.47,2.56,4.47L132.98,208.55z"/>
								</g>
							</g>
						</g>
						<g>
							<path class="st13" d="M180.37,185.85c-9.93,16.38-40.66,17.26-40.66,17.26s-10.61-25.09-0.31-42.09
								c13.98-23.06,35.55-29.91,63.14-22.73C185.07,155.51,190.3,169.47,180.37,185.85z"/>
							<path class="st14" d="M173.26,185.28c-5.56,4.12-16.24,8.07-22.64,3.12c-1.85-1.43-3.76-2.95-3.3-5.55
								c1.11-6.36,2.19-12.62,2.92-19.04c0.7-6.08,1.25-12.77,4.05-18.31c0.31-0.61,0.63-1.19,0.96-1.78
								c-6.04,4.14-11.33,9.88-15.84,17.31c-10.3,16.99,0.31,42.09,0.31,42.09s30.73-0.88,40.66-17.26
								c2.68-4.43,4.26-8.68,5.47-12.87C181.97,177.41,178.02,181.74,173.26,185.28z"/>
							<path class="st15" d="M169.47,137.25c6.04,2.99,18.89,2.28,23.17,2.47c0.82,0.04,1.43,0.81,1.2,1.63
								c-1.41,5.08-6.27,9.22-7.07,14.33c-0.47,3.04,0.26,5.43,1.66,7.43c2.13-7.92,5.1-15.93,14.11-24.8
								C190.28,135.11,179.21,134.7,169.47,137.25z"/>
							<g>
								<g>
									<path class="st16" d="M133,221.85c0,0,0.57-1.57,1.57-4.31c0.5-1.38,1.2-2.92,1.96-4.77c0.74-1.84,1.78-3.88,2.81-6.12
										c1.11-2.21,2.32-4.61,3.68-7.11c1.39-2.48,2.83-5.12,4.48-7.75c1.57-2.68,3.36-5.35,5.15-8.08
										c0.89-1.37,1.88-2.69,2.82-4.05c0.95-1.35,1.9-2.72,2.92-4.02c1.01-1.32,2.01-2.64,3.01-3.96
										c1.05-1.28,2.09-2.55,3.13-3.81c0.52-0.63,1.04-1.26,1.55-1.88c0.54-0.6,1.08-1.2,1.61-1.8c1.07-1.19,2.13-2.37,3.17-3.53
										c1.09-1.11,2.16-2.21,3.21-3.28c1.04-1.08,2.08-2.12,3.15-3.07c1.05-0.97,2.07-1.91,3.06-2.82
										c0.98-0.93,2.02-1.7,2.97-2.51c0.97-0.79,1.89-1.55,2.77-2.28c0.92-0.67,1.8-1.3,2.62-1.9c1.65-1.19,3.07-2.25,4.34-2.97
										c2.49-1.53,3.91-2.4,3.91-2.4s-1.46,0.82-4,2.25c-1.3,0.67-2.77,1.67-4.47,2.8c-0.85,0.56-1.75,1.17-2.7,1.8
										c-0.91,0.69-1.87,1.42-2.87,2.17c-0.99,0.77-2.08,1.51-3.09,2.4c-1.03,0.88-2.1,1.78-3.19,2.71
										c-1.12,0.91-2.2,1.92-3.29,2.96c-1.1,1.04-2.23,2.1-3.37,3.17c-1.09,1.13-2.21,2.27-3.33,3.43
										c-0.56,0.58-1.13,1.17-1.7,1.75c-0.55,0.61-1.09,1.22-1.64,1.84c-1.1,1.23-2.2,2.48-3.31,3.73
										c-1.06,1.29-2.13,2.58-3.2,3.87c-1.09,1.28-2.1,2.62-3.11,3.95c-1.01,1.33-2.06,2.63-3.01,3.98
										c-1.92,2.69-3.84,5.32-5.54,7.97c-1.78,2.6-3.34,5.22-4.86,7.68c-1.48,2.48-2.81,4.88-4.03,7.09
										c-1.15,2.26-2.27,4.27-3.13,6.17c-0.86,1.88-1.69,3.54-2.23,4.89c-1.11,2.7-1.74,4.24-1.74,4.24L133,221.85z"/>
								</g>
							</g>
						</g>
						<line class="st17" x1="130.93" y1="269.87" x2="130.93" y2="190.97"/>
					</g>
				</g>
			</g>
			<g>
				<polygon class="st18" points="728.25,348.05 723.79,345.52 705.95,335.4 702.27,333.32 708.26,322.72 733.3,336.93 
					734.24,337.47 				"/>
				<path class="st19" d="M756.49,330.21c-4.69,8.27-15.12,11.3-23.18,6.72l-25.04-14.21l-1.47-0.83
					c-8.04-4.57-10.81-15.08-6.1-23.35l13.7-24.17l55.81,31.67L756.49,330.21z"/>
				<path class="st18" d="M772.96,307.07c-0.81-0.13-1.62-0.4-2.38-0.83l-0.36-0.2l-55.81-31.67l-2.99-1.7
					c-3.37-1.92-4.58-6.25-2.66-9.62c1.49-2.63,4.44-3.93,7.26-3.49c0.81,0.13,1.62,0.4,2.36,0.83l6.61,3.76l16.1,9.15l13.36,7.57
					l16.1,9.15l6.97,3.97c3.38,1.9,4.58,6.25,2.66,9.62C778.72,306.22,775.77,307.52,772.96,307.07z"/>
				<path class="st20" d="M770.56,290.02l-16.1-9.15l21.92-38.59c2.51-4.46,8.18-6.02,12.62-3.49c3.45,1.96,5.17,5.8,4.58,9.51
					c-0.17,1.07-0.52,2.12-1.1,3.13L770.56,290.02z M776.08,265.33c1.3,0.72,2.95,0.28,3.67-1.02l8.48-14.9
					c0.17-0.28,0.26-0.6,0.31-0.91c0.17-1.07-0.32-2.21-1.33-2.78c-1.3-0.72-2.95-0.28-3.67,1.02l-8.48,14.92
					C774.34,262.93,774.78,264.58,776.08,265.33z"/>
				<path class="st20" d="M741.09,273.3l-16.1-9.15l21.92-38.61c2.51-4.44,8.17-6,12.62-3.49c3.45,1.96,5.17,5.8,4.58,9.51
					c-0.17,1.07-0.52,2.14-1.1,3.13L741.09,273.3z M746.61,248.61c1.3,0.72,2.95,0.26,3.67-1.02l8.48-14.92
					c0.17-0.28,0.26-0.58,0.31-0.89c0.17-1.09-0.31-2.23-1.33-2.78c-1.3-0.72-2.95-0.28-3.67,1.02l-8.48,14.9
					C744.87,246.22,745.32,247.87,746.61,248.61z"/>
				<path class="st21" d="M708.88,318.41c-4.89-5.51-5.36-13.67-0.93-19.62c0.79-1.06-0.8-2.36-1.59-1.3
					c-4.94,6.63-4.66,15.92,0.86,22.12C708.1,320.59,709.76,319.4,708.88,318.41z"/>
				<path class="st21" d="M711.24,292.45c1.85-3.54,3.71-7.08,5.56-10.61c0.61-1.17-1.26-2.01-1.87-0.85
					c-1.85,3.54-3.71,7.08-5.56,10.61C708.76,292.78,710.63,293.62,711.24,292.45z"/>
			</g>
			<line class="st22" x1="691.21" y1="374.96" x2="696.69" y2="367.22"/>
			<path class="st22" d="M659.83,393.69h12.43c3.57,0,6.91-1.73,8.97-4.64l5.4-7.63"/>
			<line class="st22" x1="431.62" y1="393.69" x2="447.14" y2="393.69"/>
			<line class="st22" x1="397.58" y1="393.69" x2="421.16" y2="393.69"/>
			<line class="st22" x1="147.58" y1="393.69" x2="157.11" y2="393.69"/>
			<line class="st22" x1="164.14" y1="393.69" x2="169.84" y2="393.69"/>
			<path class="st22" d="M126.88,381.02c0,7,5.67,12.67,12.67,12.67"/>
		</g>
	</g>
</g>
</svg>
