<svg xmlns="http://www.w3.org/2000/svg" xmlns:xlink="http://www.w3.org/1999/xlink" width="500" zoomAndPan="magnify" viewBox="0 0 375 374.999991" height="500" preserveAspectRatio="xMidYMid meet" version="1.0"><defs><filter x="0%" y="0%" width="100%" height="100%" id="75517a92b8"><feColorMatrix values="0 0 0 0 1 0 0 0 0 1 0 0 0 0 1 0 0 0 1 0" color-interpolation-filters="sRGB"/></filter><clipPath id="59a5fd7857"><path d="M 52.441406 79.074219 L 322.558594 79.074219 L 322.558594 277.984375 L 52.441406 277.984375 Z M 52.441406 79.074219 " clip-rule="nonzero"/></clipPath><clipPath id="4ac59e27e1"><path d="M 112.5 103.53125 L 262.5 103.53125 L 262.5 253.53125 L 112.5 253.53125 Z M 112.5 103.53125 " clip-rule="nonzero"/></clipPath><clipPath id="5661852468"><path d="M 262.507812 178.535156 C 262.507812 179.761719 262.476562 180.988281 262.417969 182.214844 C 262.355469 183.441406 262.265625 184.664062 262.144531 185.886719 C 262.023438 187.105469 261.875 188.324219 261.695312 189.539062 C 261.515625 190.753906 261.304688 191.960938 261.066406 193.167969 C 260.824219 194.371094 260.558594 195.566406 260.257812 196.757812 C 259.960938 197.949219 259.632812 199.132812 259.277344 200.304688 C 258.921875 201.480469 258.535156 202.644531 258.121094 203.800781 C 257.707031 204.957031 257.265625 206.101562 256.796875 207.238281 C 256.328125 208.371094 255.832031 209.492188 255.304688 210.601562 C 254.78125 211.710938 254.230469 212.808594 253.648438 213.890625 C 253.070312 214.972656 252.46875 216.039062 251.835938 217.09375 C 251.203125 218.144531 250.546875 219.183594 249.867188 220.203125 C 249.183594 221.222656 248.476562 222.226562 247.746094 223.214844 C 247.015625 224.199219 246.261719 225.167969 245.480469 226.117188 C 244.703125 227.0625 243.902344 227.992188 243.078125 228.902344 C 242.253906 229.8125 241.40625 230.703125 240.539062 231.570312 C 239.671875 232.4375 238.78125 233.285156 237.871094 234.109375 C 236.964844 234.933594 236.035156 235.734375 235.085938 236.511719 C 234.136719 237.289062 233.167969 238.046875 232.183594 238.777344 C 231.195312 239.507812 230.195312 240.214844 229.171875 240.898438 C 228.152344 241.578125 227.117188 242.234375 226.0625 242.867188 C 225.011719 243.496094 223.941406 244.101562 222.859375 244.679688 C 221.777344 245.257812 220.679688 245.8125 219.570312 246.335938 C 218.460938 246.859375 217.339844 247.359375 216.207031 247.828125 C 215.070312 248.296875 213.925781 248.738281 212.769531 249.152344 C 211.617188 249.566406 210.449219 249.953125 209.277344 250.308594 C 208.101562 250.664062 206.917969 250.992188 205.726562 251.289062 C 204.535156 251.585938 203.339844 251.855469 202.136719 252.097656 C 200.933594 252.335938 199.722656 252.546875 198.507812 252.726562 C 197.292969 252.90625 196.078125 253.054688 194.855469 253.175781 C 193.632812 253.296875 192.410156 253.386719 191.183594 253.445312 C 189.957031 253.507812 188.730469 253.539062 187.503906 253.539062 C 186.277344 253.539062 185.050781 253.507812 183.824219 253.445312 C 182.597656 253.386719 181.375 253.296875 180.152344 253.175781 C 178.929688 253.054688 177.710938 252.90625 176.5 252.726562 C 175.285156 252.546875 174.074219 252.335938 172.871094 252.097656 C 171.667969 251.855469 170.46875 251.585938 169.277344 251.289062 C 168.089844 250.992188 166.90625 250.664062 165.730469 250.308594 C 164.554688 249.953125 163.390625 249.566406 162.234375 249.152344 C 161.078125 248.738281 159.933594 248.296875 158.800781 247.828125 C 157.667969 247.359375 156.542969 246.859375 155.433594 246.335938 C 154.324219 245.8125 153.230469 245.257812 152.148438 244.679688 C 151.066406 244.101562 149.996094 243.496094 148.945312 242.867188 C 147.890625 242.234375 146.855469 241.578125 145.832031 240.898438 C 144.8125 240.214844 143.808594 239.507812 142.824219 238.777344 C 141.839844 238.046875 140.871094 237.289062 139.921875 236.511719 C 138.972656 235.734375 138.042969 234.933594 137.132812 234.109375 C 136.226562 233.285156 135.335938 232.4375 134.46875 231.570312 C 133.601562 230.703125 132.753906 229.8125 131.929688 228.902344 C 131.105469 227.992188 130.304688 227.0625 129.523438 226.117188 C 128.746094 225.167969 127.992188 224.199219 127.261719 223.214844 C 126.527344 222.226562 125.824219 221.222656 125.140625 220.203125 C 124.457031 219.183594 123.800781 218.144531 123.171875 217.09375 C 122.539062 216.039062 121.933594 214.972656 121.355469 213.890625 C 120.777344 212.808594 120.226562 211.710938 119.699219 210.601562 C 119.175781 209.492188 118.679688 208.371094 118.210938 207.238281 C 117.738281 206.101562 117.296875 204.957031 116.882812 203.800781 C 116.472656 202.644531 116.085938 201.480469 115.730469 200.304688 C 115.375 199.132812 115.046875 197.949219 114.746094 196.757812 C 114.449219 195.566406 114.179688 194.371094 113.941406 193.167969 C 113.703125 191.960938 113.492188 190.753906 113.3125 189.539062 C 113.132812 188.324219 112.980469 187.105469 112.859375 185.886719 C 112.742188 184.664062 112.652344 183.441406 112.589844 182.214844 C 112.53125 180.988281 112.5 179.761719 112.5 178.535156 C 112.5 177.304688 112.53125 176.078125 112.589844 174.855469 C 112.652344 173.628906 112.742188 172.402344 112.859375 171.183594 C 112.980469 169.960938 113.132812 168.742188 113.3125 167.527344 C 113.492188 166.3125 113.703125 165.105469 113.941406 163.902344 C 114.179688 162.699219 114.449219 161.5 114.746094 160.308594 C 115.046875 159.117188 115.375 157.9375 115.730469 156.761719 C 116.085938 155.585938 116.472656 154.421875 116.882812 153.265625 C 117.296875 152.109375 117.738281 150.964844 118.210938 149.832031 C 118.679688 148.699219 119.175781 147.574219 119.699219 146.464844 C 120.226562 145.355469 120.777344 144.261719 121.355469 143.175781 C 121.933594 142.09375 122.539062 141.027344 123.171875 139.972656 C 123.800781 138.921875 124.457031 137.886719 125.140625 136.863281 C 125.824219 135.84375 126.527344 134.839844 127.261719 133.855469 C 127.992188 132.867188 128.746094 131.902344 129.523438 130.953125 C 130.304688 130.003906 131.105469 129.074219 131.929688 128.164062 C 132.753906 127.253906 133.601562 126.367188 134.46875 125.5 C 135.335938 124.628906 136.226562 123.785156 137.132812 122.960938 C 138.042969 122.136719 138.972656 121.335938 139.921875 120.554688 C 140.871094 119.777344 141.839844 119.023438 142.824219 118.289062 C 143.808594 117.558594 144.8125 116.851562 145.832031 116.171875 C 146.855469 115.488281 147.890625 114.832031 148.945312 114.203125 C 149.996094 113.570312 151.066406 112.964844 152.148438 112.386719 C 153.230469 111.808594 154.324219 111.257812 155.433594 110.730469 C 156.542969 110.207031 157.667969 109.710938 158.800781 109.238281 C 159.933594 108.769531 161.078125 108.328125 162.234375 107.914062 C 163.390625 107.5 164.554688 107.117188 165.730469 106.761719 C 166.90625 106.402344 168.089844 106.078125 169.277344 105.777344 C 170.46875 105.480469 171.667969 105.210938 172.871094 104.972656 C 174.074219 104.730469 175.285156 104.523438 176.5 104.34375 C 177.710938 104.164062 178.929688 104.011719 180.152344 103.890625 C 181.375 103.769531 182.597656 103.679688 183.824219 103.621094 C 185.050781 103.5625 186.277344 103.53125 187.503906 103.53125 C 188.730469 103.53125 189.957031 103.5625 191.183594 103.621094 C 192.410156 103.679688 193.632812 103.769531 194.855469 103.890625 C 196.078125 104.011719 197.292969 104.164062 198.507812 104.34375 C 199.722656 104.523438 200.933594 104.730469 202.136719 104.972656 C 203.339844 105.210938 204.535156 105.480469 205.726562 105.777344 C 206.917969 106.078125 208.101562 106.402344 209.277344 106.761719 C 210.449219 107.117188 211.617188 107.5 212.769531 107.914062 C 213.925781 108.328125 215.070312 108.769531 216.207031 109.238281 C 217.339844 109.710938 218.460938 110.207031 219.570312 110.730469 C 220.679688 111.257812 221.777344 111.808594 222.859375 112.386719 C 223.941406 112.964844 225.011719 113.570312 226.0625 114.203125 C 227.117188 114.832031 228.152344 115.488281 229.171875 116.171875 C 230.195312 116.851562 231.195312 117.558594 232.183594 118.289062 C 233.167969 119.023438 234.136719 119.777344 235.085938 120.554688 C 236.035156 121.335938 236.964844 122.136719 237.871094 122.960938 C 238.78125 123.785156 239.671875 124.628906 240.539062 125.5 C 241.40625 126.367188 242.253906 127.253906 243.078125 128.164062 C 243.902344 129.074219 244.703125 130.003906 245.480469 130.953125 C 246.261719 131.902344 247.015625 132.867188 247.746094 133.855469 C 248.476562 134.839844 249.183594 135.84375 249.867188 136.863281 C 250.546875 137.886719 251.203125 138.921875 251.835938 139.972656 C 252.46875 141.027344 253.070312 142.09375 253.648438 143.175781 C 254.230469 144.261719 254.78125 145.355469 255.304688 146.464844 C 255.832031 147.574219 256.328125 148.699219 256.796875 149.832031 C 257.265625 150.964844 257.707031 152.109375 258.121094 153.265625 C 258.535156 154.421875 258.921875 155.585938 259.277344 156.761719 C 259.632812 157.9375 259.960938 159.117188 260.257812 160.308594 C 260.558594 161.5 260.824219 162.699219 261.066406 163.902344 C 261.304688 165.105469 261.515625 166.3125 261.695312 167.527344 C 261.875 168.742188 262.023438 169.960938 262.144531 171.183594 C 262.265625 172.402344 262.355469 173.628906 262.417969 174.855469 C 262.476562 176.078125 262.507812 177.304688 262.507812 178.535156 Z M 262.507812 178.535156 " clip-rule="nonzero"/></clipPath><linearGradient x1="-0.0000140344" gradientTransform="matrix(0.334001, 0, 0, 0.334001, 112.500002, 103.530578)" y1="224.558" x2="449.099975" gradientUnits="userSpaceOnUse" y2="224.558" id="9e3a6e6a7a"><stop stop-opacity="1" stop-color="rgb(88.198853%, 48.599243%, 24.299622%)" offset="0"/><stop stop-opacity="1" stop-color="rgb(88.244629%, 48.698425%, 24.34082%)" offset="0.0078125"/><stop stop-opacity="1" stop-color="rgb(88.337708%, 48.898315%, 24.423218%)" offset="0.015625"/><stop stop-opacity="1" stop-color="rgb(88.42926%, 49.09668%, 24.505615%)" offset="0.0234375"/><stop stop-opacity="1" stop-color="rgb(88.520813%, 49.29657%, 24.589539%)" offset="0.03125"/><stop stop-opacity="1" stop-color="rgb(88.613892%, 49.494934%, 24.671936%)" offset="0.0390625"/><stop stop-opacity="1" stop-color="rgb(88.705444%, 49.694824%, 24.754333%)" offset="0.046875"/><stop stop-opacity="1" stop-color="rgb(88.798523%, 49.893188%, 24.836731%)" offset="0.0546875"/><stop stop-opacity="1" stop-color="rgb(88.890076%, 50.093079%, 24.920654%)" offset="0.0625"/><stop stop-opacity="1" stop-color="rgb(88.983154%, 50.291443%, 25.003052%)" offset="0.0703125"/><stop stop-opacity="1" stop-color="rgb(89.074707%, 50.491333%, 25.085449%)" offset="0.078125"/><stop stop-opacity="1" stop-color="rgb(89.16626%, 50.691223%, 25.167847%)" offset="0.0859375"/><stop stop-opacity="1" stop-color="rgb(89.259338%, 50.889587%, 25.25177%)" offset="0.09375"/><stop stop-opacity="1" stop-color="rgb(89.350891%, 51.089478%, 25.334167%)" offset="0.101563"/><stop stop-opacity="1" stop-color="rgb(89.44397%, 51.287842%, 25.416565%)" offset="0.109375"/><stop stop-opacity="1" stop-color="rgb(89.535522%, 51.487732%, 25.500488%)" offset="0.117188"/><stop stop-opacity="1" stop-color="rgb(89.627075%, 51.686096%, 25.582886%)" offset="0.125"/><stop stop-opacity="1" stop-color="rgb(89.720154%, 51.885986%, 25.665283%)" offset="0.132812"/><stop stop-opacity="1" stop-color="rgb(89.811707%, 52.084351%, 25.747681%)" offset="0.140625"/><stop stop-opacity="1" stop-color="rgb(89.904785%, 52.284241%, 25.831604%)" offset="0.148437"/><stop stop-opacity="1" stop-color="rgb(89.996338%, 52.484131%, 25.914001%)" offset="0.15625"/><stop stop-opacity="1" stop-color="rgb(90.089417%, 52.682495%, 25.996399%)" offset="0.164062"/><stop stop-opacity="1" stop-color="rgb(90.180969%, 52.882385%, 26.078796%)" offset="0.171875"/><stop stop-opacity="1" stop-color="rgb(90.272522%, 53.08075%, 26.16272%)" offset="0.179687"/><stop stop-opacity="1" stop-color="rgb(90.365601%, 53.28064%, 26.245117%)" offset="0.1875"/><stop stop-opacity="1" stop-color="rgb(90.457153%, 53.479004%, 26.327515%)" offset="0.195312"/><stop stop-opacity="1" stop-color="rgb(90.550232%, 53.678894%, 26.409912%)" offset="0.203125"/><stop stop-opacity="1" stop-color="rgb(90.641785%, 53.877258%, 26.493835%)" offset="0.210937"/><stop stop-opacity="1" stop-color="rgb(90.733337%, 54.077148%, 26.576233%)" offset="0.21875"/><stop stop-opacity="1" stop-color="rgb(90.826416%, 54.277039%, 26.65863%)" offset="0.226562"/><stop stop-opacity="1" stop-color="rgb(90.917969%, 54.475403%, 26.742554%)" offset="0.234375"/><stop stop-opacity="1" stop-color="rgb(91.011047%, 54.675293%, 26.824951%)" offset="0.242187"/><stop stop-opacity="1" stop-color="rgb(91.1026%, 54.873657%, 26.907349%)" offset="0.25"/><stop stop-opacity="1" stop-color="rgb(91.194153%, 55.073547%, 26.989746%)" offset="0.257813"/><stop stop-opacity="1" stop-color="rgb(91.287231%, 55.271912%, 27.073669%)" offset="0.265625"/><stop stop-opacity="1" stop-color="rgb(91.378784%, 55.471802%, 27.156067%)" offset="0.273438"/><stop stop-opacity="1" stop-color="rgb(91.471863%, 55.670166%, 27.238464%)" offset="0.28125"/><stop stop-opacity="1" stop-color="rgb(91.563416%, 55.870056%, 27.320862%)" offset="0.289062"/><stop stop-opacity="1" stop-color="rgb(91.656494%, 56.069946%, 27.404785%)" offset="0.296875"/><stop stop-opacity="1" stop-color="rgb(91.748047%, 56.268311%, 27.487183%)" offset="0.304688"/><stop stop-opacity="1" stop-color="rgb(91.8396%, 56.468201%, 27.56958%)" offset="0.3125"/><stop stop-opacity="1" stop-color="rgb(91.932678%, 56.666565%, 27.653503%)" offset="0.320312"/><stop stop-opacity="1" stop-color="rgb(92.024231%, 56.866455%, 27.735901%)" offset="0.328125"/><stop stop-opacity="1" stop-color="rgb(92.11731%, 57.064819%, 27.818298%)" offset="0.335938"/><stop stop-opacity="1" stop-color="rgb(92.208862%, 57.264709%, 27.900696%)" offset="0.34375"/><stop stop-opacity="1" stop-color="rgb(92.300415%, 57.463074%, 27.984619%)" offset="0.351562"/><stop stop-opacity="1" stop-color="rgb(92.393494%, 57.662964%, 28.067017%)" offset="0.359375"/><stop stop-opacity="1" stop-color="rgb(92.485046%, 57.862854%, 28.149414%)" offset="0.367188"/><stop stop-opacity="1" stop-color="rgb(92.578125%, 58.061218%, 28.231812%)" offset="0.375"/><stop stop-opacity="1" stop-color="rgb(92.669678%, 58.261108%, 28.315735%)" offset="0.382812"/><stop stop-opacity="1" stop-color="rgb(92.762756%, 58.459473%, 28.398132%)" offset="0.390625"/><stop stop-opacity="1" stop-color="rgb(92.854309%, 58.659363%, 28.48053%)" offset="0.398438"/><stop stop-opacity="1" stop-color="rgb(92.945862%, 58.857727%, 28.564453%)" offset="0.40625"/><stop stop-opacity="1" stop-color="rgb(93.03894%, 59.057617%, 28.646851%)" offset="0.414062"/><stop stop-opacity="1" stop-color="rgb(93.130493%, 59.255981%, 28.729248%)" offset="0.421875"/><stop stop-opacity="1" stop-color="rgb(93.223572%, 59.455872%, 28.811646%)" offset="0.429688"/><stop stop-opacity="1" stop-color="rgb(93.315125%, 59.655762%, 28.895569%)" offset="0.4375"/><stop stop-opacity="1" stop-color="rgb(93.406677%, 59.854126%, 28.977966%)" offset="0.445312"/><stop stop-opacity="1" stop-color="rgb(93.499756%, 60.054016%, 29.060364%)" offset="0.453125"/><stop stop-opacity="1" stop-color="rgb(93.591309%, 60.25238%, 29.142761%)" offset="0.460938"/><stop stop-opacity="1" stop-color="rgb(93.684387%, 60.452271%, 29.226685%)" offset="0.46875"/><stop stop-opacity="1" stop-color="rgb(93.77594%, 60.650635%, 29.309082%)" offset="0.476562"/><stop stop-opacity="1" stop-color="rgb(93.867493%, 60.850525%, 29.391479%)" offset="0.484375"/><stop stop-opacity="1" stop-color="rgb(93.960571%, 61.048889%, 29.473877%)" offset="0.492188"/><stop stop-opacity="1" stop-color="rgb(94.052124%, 61.248779%, 29.5578%)" offset="0.5"/><stop stop-opacity="1" stop-color="rgb(94.145203%, 61.448669%, 29.640198%)" offset="0.507812"/><stop stop-opacity="1" stop-color="rgb(94.236755%, 61.647034%, 29.722595%)" offset="0.515625"/><stop stop-opacity="1" stop-color="rgb(94.329834%, 61.846924%, 29.806519%)" offset="0.523437"/><stop stop-opacity="1" stop-color="rgb(94.421387%, 62.045288%, 29.888916%)" offset="0.53125"/><stop stop-opacity="1" stop-color="rgb(94.512939%, 62.245178%, 29.971313%)" offset="0.539063"/><stop stop-opacity="1" stop-color="rgb(94.606018%, 62.443542%, 30.053711%)" offset="0.546875"/><stop stop-opacity="1" stop-color="rgb(94.697571%, 62.643433%, 30.137634%)" offset="0.554688"/><stop stop-opacity="1" stop-color="rgb(94.790649%, 62.841797%, 30.220032%)" offset="0.5625"/><stop stop-opacity="1" stop-color="rgb(94.882202%, 63.041687%, 30.302429%)" offset="0.570312"/><stop stop-opacity="1" stop-color="rgb(94.973755%, 63.241577%, 30.384827%)" offset="0.578125"/><stop stop-opacity="1" stop-color="rgb(95.066833%, 63.439941%, 30.46875%)" offset="0.585937"/><stop stop-opacity="1" stop-color="rgb(95.158386%, 63.639832%, 30.551147%)" offset="0.59375"/><stop stop-opacity="1" stop-color="rgb(95.251465%, 63.838196%, 30.633545%)" offset="0.601563"/><stop stop-opacity="1" stop-color="rgb(95.343018%, 64.038086%, 30.717468%)" offset="0.609375"/><stop stop-opacity="1" stop-color="rgb(95.436096%, 64.23645%, 30.799866%)" offset="0.617188"/><stop stop-opacity="1" stop-color="rgb(95.527649%, 64.43634%, 30.882263%)" offset="0.625"/><stop stop-opacity="1" stop-color="rgb(95.619202%, 64.634705%, 30.964661%)" offset="0.632812"/><stop stop-opacity="1" stop-color="rgb(95.71228%, 64.834595%, 31.048584%)" offset="0.640625"/><stop stop-opacity="1" stop-color="rgb(95.803833%, 65.034485%, 31.130981%)" offset="0.648438"/><stop stop-opacity="1" stop-color="rgb(95.896912%, 65.232849%, 31.213379%)" offset="0.65625"/><stop stop-opacity="1" stop-color="rgb(95.988464%, 65.432739%, 31.295776%)" offset="0.664063"/><stop stop-opacity="1" stop-color="rgb(96.080017%, 65.631104%, 31.3797%)" offset="0.671875"/><stop stop-opacity="1" stop-color="rgb(96.173096%, 65.830994%, 31.462097%)" offset="0.679688"/><stop stop-opacity="1" stop-color="rgb(96.264648%, 66.029358%, 31.544495%)" offset="0.6875"/><stop stop-opacity="1" stop-color="rgb(96.357727%, 66.229248%, 31.628418%)" offset="0.695312"/><stop stop-opacity="1" stop-color="rgb(96.44928%, 66.427612%, 31.710815%)" offset="0.703125"/><stop stop-opacity="1" stop-color="rgb(96.540833%, 66.627502%, 31.793213%)" offset="0.710938"/><stop stop-opacity="1" stop-color="rgb(96.633911%, 66.827393%, 31.87561%)" offset="0.71875"/><stop stop-opacity="1" stop-color="rgb(96.725464%, 67.025757%, 31.959534%)" offset="0.726563"/><stop stop-opacity="1" stop-color="rgb(96.818542%, 67.225647%, 32.041931%)" offset="0.734375"/><stop stop-opacity="1" stop-color="rgb(96.910095%, 67.424011%, 32.124329%)" offset="0.742188"/><stop stop-opacity="1" stop-color="rgb(97.003174%, 67.623901%, 32.206726%)" offset="0.75"/><stop stop-opacity="1" stop-color="rgb(97.094727%, 67.822266%, 32.290649%)" offset="0.757812"/><stop stop-opacity="1" stop-color="rgb(97.186279%, 68.022156%, 32.373047%)" offset="0.765625"/><stop stop-opacity="1" stop-color="rgb(97.279358%, 68.22052%, 32.455444%)" offset="0.773438"/><stop stop-opacity="1" stop-color="rgb(97.370911%, 68.42041%, 32.537842%)" offset="0.78125"/><stop stop-opacity="1" stop-color="rgb(97.463989%, 68.6203%, 32.621765%)" offset="0.789063"/><stop stop-opacity="1" stop-color="rgb(97.555542%, 68.818665%, 32.704163%)" offset="0.796875"/><stop stop-opacity="1" stop-color="rgb(97.647095%, 69.018555%, 32.78656%)" offset="0.804688"/><stop stop-opacity="1" stop-color="rgb(97.740173%, 69.216919%, 32.870483%)" offset="0.8125"/><stop stop-opacity="1" stop-color="rgb(97.831726%, 69.416809%, 32.952881%)" offset="0.820312"/><stop stop-opacity="1" stop-color="rgb(97.924805%, 69.615173%, 33.035278%)" offset="0.828125"/><stop stop-opacity="1" stop-color="rgb(98.016357%, 69.815063%, 33.117676%)" offset="0.835938"/><stop stop-opacity="1" stop-color="rgb(98.109436%, 70.013428%, 33.201599%)" offset="0.84375"/><stop stop-opacity="1" stop-color="rgb(98.200989%, 70.213318%, 33.283997%)" offset="0.851563"/><stop stop-opacity="1" stop-color="rgb(98.292542%, 70.411682%, 33.366394%)" offset="0.859375"/><stop stop-opacity="1" stop-color="rgb(98.38562%, 70.611572%, 33.448792%)" offset="0.867188"/><stop stop-opacity="1" stop-color="rgb(98.477173%, 70.811462%, 33.532715%)" offset="0.875"/><stop stop-opacity="1" stop-color="rgb(98.570251%, 71.009827%, 33.615112%)" offset="0.882813"/><stop stop-opacity="1" stop-color="rgb(98.661804%, 71.209717%, 33.69751%)" offset="0.890625"/><stop stop-opacity="1" stop-color="rgb(98.753357%, 71.408081%, 33.781433%)" offset="0.898438"/><stop stop-opacity="1" stop-color="rgb(98.846436%, 71.607971%, 33.863831%)" offset="0.90625"/><stop stop-opacity="1" stop-color="rgb(98.937988%, 71.806335%, 33.946228%)" offset="0.914063"/><stop stop-opacity="1" stop-color="rgb(99.031067%, 72.006226%, 34.028625%)" offset="0.921875"/><stop stop-opacity="1" stop-color="rgb(99.12262%, 72.20459%, 34.112549%)" offset="0.929688"/><stop stop-opacity="1" stop-color="rgb(99.214172%, 72.40448%, 34.194946%)" offset="0.9375"/><stop stop-opacity="1" stop-color="rgb(99.307251%, 72.60437%, 34.277344%)" offset="0.945313"/><stop stop-opacity="1" stop-color="rgb(99.398804%, 72.802734%, 34.359741%)" offset="0.953125"/><stop stop-opacity="1" stop-color="rgb(99.491882%, 73.002625%, 34.443665%)" offset="0.960938"/><stop stop-opacity="1" stop-color="rgb(99.583435%, 73.200989%, 34.526062%)" offset="0.96875"/><stop stop-opacity="1" stop-color="rgb(99.676514%, 73.400879%, 34.608459%)" offset="0.976562"/><stop stop-opacity="1" stop-color="rgb(99.768066%, 73.599243%, 34.690857%)" offset="0.984375"/><stop stop-opacity="1" stop-color="rgb(99.859619%, 73.799133%, 34.77478%)" offset="0.992187"/><stop stop-opacity="1" stop-color="rgb(99.952698%, 73.997498%, 34.857178%)" offset="1"/></linearGradient><mask id="c72d962f74"><g filter="url(#75517a92b8)"><rect x="-37.5" width="450" fill="#000000" y="-37.499999" height="449.999989" fill-opacity="0.67"/></g></mask><clipPath id="1738f5ce3b"><rect x="0" width="64" y="0" height="121"/></clipPath></defs><g clip-path="url(#59a5fd7857)"><path fill="#1d83c1" d="M 52.441406 79.074219 L 322.832031 79.074219 L 322.832031 277.984375 L 52.441406 277.984375 Z M 52.441406 79.074219 " fill-opacity="1" fill-rule="nonzero"/></g><g clip-path="url(#4ac59e27e1)"><g clip-path="url(#5661852468)"><path fill="url(#9e3a6e6a7a)" d="M 112.5 103.53125 L 112.5 253.53125 L 262.5 253.53125 L 262.5 103.53125 Z M 112.5 103.53125 " fill-rule="nonzero"/></g></g><g mask="url(#c72d962f74)"><g transform="matrix(1, 0, 0, 1, 152, 120)"><g clip-path="url(#1738f5ce3b)"><path fill="#3c3c3b" d="M 51.898438 97.570312 C 51.648438 97.066406 51.722656 96.785156 52.003906 96.386719 C 54.234375 93.207031 56.4375 90 58.640625 86.804688 C 60.3125 84.382812 61.523438 81.734375 61.96875 78.808594 C 63.253906 70.28125 60.3125 63.480469 53.320312 58.453125 C 50.214844 56.222656 47.035156 54.078125 43.886719 51.917969 C 43.503906 51.652344 43.339844 51.445312 43.398438 50.914062 C 43.636719 49.097656 43 47.589844 41.492188 46.523438 C 39.984375 45.472656 38.359375 45.414062 36.703125 46.214844 C 36.378906 46.375 36.140625 46.582031 35.742188 46.289062 C 35.003906 45.726562 34.207031 45.238281 33.453125 44.675781 C 32.667969 44.097656 32.519531 43.285156 33.050781 42.457031 C 33.539062 41.703125 34.101562 40.980469 34.574219 40.226562 C 34.8125 39.871094 35.046875 39.8125 35.460938 39.871094 C 37.28125 40.109375 38.800781 39.488281 39.851562 37.992188 C 40.929688 36.472656 41.019531 34.800781 40.132812 33.144531 C 39.910156 32.730469 39.941406 32.464844 40.191406 32.109375 C 43.652344 27.144531 47.09375 22.160156 50.554688 17.195312 C 42.925781 11.902344 35.300781 6.625 27.671875 1.332031 C 24.242188 6.285156 20.8125 11.238281 17.382812 16.191406 C 17.132812 16.558594 16.910156 16.75 16.378906 16.675781 C 14.558594 16.441406 13.050781 17.078125 11.988281 18.585938 C 10.9375 20.09375 10.847656 21.734375 11.691406 23.359375 C 11.941406 23.847656 11.882812 24.144531 11.601562 24.542969 C 9.371094 27.71875 7.167969 30.929688 4.949219 34.121094 C 3.324219 36.472656 2.113281 39.027344 1.667969 41.851562 C 0.277344 50.425781 3.148438 57.328125 10.183594 62.429688 C 13.257812 64.648438 16.40625 66.777344 19.539062 68.917969 C 20.027344 69.246094 20.25 69.539062 20.175781 70.207031 C 19.808594 73.472656 22.96875 76.148438 26 74.996094 C 27.332031 74.492188 28.160156 74.730469 29.074219 75.527344 C 29.386719 75.808594 29.769531 76 30.109375 76.25 C 30.894531 76.84375 31.042969 77.640625 30.523438 78.46875 C 30.082031 79.148438 29.578125 79.800781 29.148438 80.480469 C 28.855469 80.96875 28.558594 81.144531 27.9375 81.070312 C 26.148438 80.847656 24.683594 81.542969 23.664062 83.023438 C 22.675781 84.472656 22.527344 86.066406 23.355469 87.621094 C 23.664062 88.210938 23.5625 88.566406 23.222656 89.054688 C 19.96875 93.726562 16.730469 98.410156 13.480469 103.082031 C 13.09375 103.613281 13.109375 103.851562 13.671875 104.25 C 20.871094 109.203125 28.054688 114.183594 35.210938 119.179688 C 35.773438 119.566406 35.992188 119.507812 36.363281 118.957031 C 39.601562 114.242188 42.867188 109.542969 46.121094 104.828125 C 46.386719 104.441406 46.578125 104.191406 47.167969 104.265625 C 48.988281 104.515625 50.496094 103.867188 51.558594 102.359375 C 52.652344 100.851562 52.726562 99.195312 51.898438 97.570312 Z M 29.164062 6.0625 C 34.648438 9.890625 40.148438 13.707031 45.660156 17.492188 C 46.148438 17.832031 46.195312 18.050781 45.855469 18.539062 C 43.191406 22.339844 40.546875 26.152344 37.929688 29.980469 C 37.589844 30.484375 37.355469 30.484375 36.878906 30.160156 C 34.144531 28.238281 31.394531 26.34375 28.648438 24.4375 C 25.898438 22.53125 23.164062 20.609375 20.398438 18.730469 C 19.910156 18.390625 19.867188 18.171875 20.207031 17.683594 C 22.867188 13.882812 25.511719 10.070312 28.128906 6.242188 C 28.453125 5.738281 28.691406 5.722656 29.164062 6.0625 Z M 14.46875 20.683594 C 14.808594 19.839844 15.742188 19.5 16.539062 19.945312 C 16.804688 20.09375 17.042969 20.269531 17.292969 20.433594 C 23.648438 24.835938 30.023438 29.242188 36.378906 33.648438 C 37.621094 34.503906 37.929688 35.289062 37.367188 36.132812 C 36.808594 36.972656 35.933594 36.972656 34.707031 36.117188 C 31.484375 33.882812 28.277344 31.652344 25.054688 29.433594 C 21.789062 27.171875 18.519531 24.910156 15.253906 22.648438 C 14.53125 22.160156 14.117188 21.585938 14.46875 20.683594 Z M 21.226562 66.257812 C 17.796875 63.804688 14.25 61.527344 10.878906 58.972656 C 5.808594 55.140625 3.355469 48.03125 4.90625 41.824219 C 5.453125 39.605469 6.429688 37.59375 7.699219 35.71875 C 9.785156 32.6875 11.898438 29.6875 13.96875 26.640625 C 14.351562 26.078125 14.589844 26.035156 15.148438 26.417969 C 20.574219 30.21875 26.03125 33.988281 31.5 37.742188 C 32.046875 38.113281 32.148438 38.347656 31.738281 38.925781 C 31.027344 39.886719 30.242188 40.816406 29.875 42 C 29.296875 43.863281 29.828125 45.710938 31.335938 46.9375 C 32.046875 47.5 32.769531 48.046875 33.539062 48.519531 C 34.058594 48.84375 34.058594 49.097656 33.71875 49.570312 C 31.765625 52.332031 29.859375 55.113281 27.9375 57.875 C 26.046875 60.597656 24.152344 63.316406 22.289062 66.050781 C 21.949219 66.539062 21.714844 66.613281 21.226562 66.257812 Z M 24.242188 71.964844 C 23.382812 71.609375 23.058594 70.707031 23.488281 69.910156 C 23.636719 69.644531 23.8125 69.390625 23.976562 69.15625 C 28.378906 62.800781 32.785156 56.429688 37.191406 50.070312 C 38.046875 48.828125 38.832031 48.519531 39.675781 49.082031 C 40.503906 49.644531 40.503906 50.53125 39.675781 51.742188 C 37.441406 54.964844 35.210938 58.171875 32.992188 61.394531 C 30.730469 64.664062 28.46875 67.929688 26.207031 71.195312 C 25.71875 71.90625 25.144531 72.335938 24.242188 71.964844 Z M 32.296875 73.988281 C 31.601562 73.429688 30.863281 72.894531 30.109375 72.410156 C 29.667969 72.128906 29.5625 71.921875 29.902344 71.433594 C 33.761719 65.902344 37.605469 60.34375 41.433594 54.789062 C 41.730469 54.34375 41.953125 54.34375 42.351562 54.640625 C 45.957031 57.210938 49.769531 59.488281 53.1875 62.328125 C 57.371094 65.800781 59.292969 70.414062 59.171875 75.835938 C 59.097656 79.296875 57.902344 82.402344 55.9375 85.238281 C 53.835938 88.253906 51.738281 91.269531 49.667969 94.316406 C 49.269531 94.894531 49.015625 94.894531 48.484375 94.507812 C 45.78125 92.585938 43.046875 90.722656 40.324219 88.832031 C 37.574219 86.925781 34.839844 85.003906 32.078125 83.125 C 31.574219 82.785156 31.558594 82.550781 31.882812 82.074219 C 32.578125 81.101562 33.378906 80.183594 33.761719 79.015625 C 34.367188 77.109375 33.851562 75.230469 32.296875 73.988281 Z M 35.519531 114.703125 C 35.179688 115.203125 34.960938 115.21875 34.472656 114.878906 C 28.988281 111.050781 23.488281 107.234375 17.972656 103.453125 C 17.484375 103.113281 17.425781 102.890625 17.78125 102.402344 C 20.441406 98.601562 23.089844 94.789062 25.707031 90.960938 C 26.046875 90.457031 26.28125 90.441406 26.753906 90.78125 C 29.519531 92.734375 32.296875 94.640625 35.0625 96.5625 C 37.78125 98.457031 40.503906 100.347656 43.238281 102.210938 C 43.726562 102.535156 43.785156 102.757812 43.429688 103.257812 C 40.785156 107.058594 38.152344 110.871094 35.519531 114.703125 Z M 46.3125 100.480469 C 43.148438 98.292969 39.96875 96.089844 36.808594 93.902344 C 33.511719 91.625 30.230469 89.347656 26.933594 87.058594 C 26.03125 86.421875 25.808594 85.800781 26.179688 85.019531 C 26.546875 84.21875 27.433594 83.925781 28.203125 84.351562 C 28.46875 84.5 28.722656 84.679688 28.957031 84.839844 C 35.3125 89.246094 41.683594 93.652344 48.042969 98.054688 C 49.285156 98.914062 49.59375 99.695312 49.046875 100.539062 C 48.484375 101.382812 47.582031 101.351562 46.3125 100.480469 Z M 46.3125 100.480469 " fill-opacity="1" fill-rule="nonzero"/></g></g></g></svg>